<svg xmlns="http://www.w3.org/2000/svg" xmlns:xlink="http://www.w3.org/1999/xlink" width="500" zoomAndPan="magnify" viewBox="0 0 375 374.999991" height="500" preserveAspectRatio="xMidYMid meet" version="1.0"><defs><g/></defs><rect x="-37.5" width="450" fill="#ffffff" y="-37.499999" height="449.999989" fill-opacity="1"/><rect x="-37.5" width="450" fill="#293731" y="-37.499999" height="449.999989" fill-opacity="1"/><g fill="#ffffff" fill-opacity="1"><g transform="translate(77.521573, 275.104144)"><g><path d="M 26.265625 -169.640625 C 24.429688 -169.640625 22.890625 -170.265625 21.640625 -171.515625 C 20.390625 -172.765625 19.765625 -174.390625 19.765625 -176.390625 C 19.765625 -178.390625 20.390625 -180.015625 21.640625 -181.265625 C 22.890625 -182.523438 24.429688 -183.15625 26.265625 -183.15625 C 28.109375 -183.15625 29.65625 -182.523438 30.90625 -181.265625 C 32.15625 -180.015625 32.78125 -178.390625 32.78125 -176.390625 C 32.78125 -174.390625 32.15625 -172.765625 30.90625 -171.515625 C 29.65625 -170.265625 28.109375 -169.640625 26.265625 -169.640625 Z M 28.765625 38.03125 C 28.765625 46.207031 26.765625 52.503906 22.765625 56.921875 C 18.765625 61.335938 12.09375 63.546875 2.75 63.546875 L -6.25 63.546875 L -6.25 58.546875 L 2.75 58.546875 C 10.09375 58.546875 15.429688 56.921875 18.765625 53.671875 C 22.097656 50.421875 23.765625 44.707031 23.765625 36.53125 L 23.765625 -135.109375 L 28.765625 -135.109375 Z M 28.765625 38.03125 "/></g></g></g><g fill="#efe9ce" fill-opacity="1"><g transform="translate(142.326256, 275.104144)"><g><path d="M 144.375 -73.8125 C 144.375 -69.46875 144.117188 -64.878906 143.609375 -60.046875 L 34.03125 -60.046875 C 34.863281 -46.535156 39.488281 -35.984375 47.90625 -28.390625 C 56.332031 -20.804688 66.550781 -17.015625 78.5625 -17.015625 C 88.40625 -17.015625 96.617188 -19.304688 103.203125 -23.890625 C 109.796875 -28.484375 114.425781 -34.613281 117.09375 -42.28125 L 141.609375 -42.28125 C 137.941406 -29.101562 130.601562 -18.382812 119.59375 -10.125 C 108.582031 -1.875 94.90625 2.25 78.5625 2.25 C 65.550781 2.25 53.914062 -0.664062 43.65625 -6.5 C 33.394531 -12.34375 25.347656 -20.640625 19.515625 -31.390625 C 13.679688 -42.148438 10.765625 -54.625 10.765625 -68.8125 C 10.765625 -82.988281 13.597656 -95.410156 19.265625 -106.078125 C 24.929688 -116.753906 32.894531 -124.96875 43.15625 -130.71875 C 53.414062 -136.476562 65.21875 -139.359375 78.5625 -139.359375 C 91.570312 -139.359375 103.082031 -136.519531 113.09375 -130.84375 C 123.101562 -125.175781 130.816406 -117.378906 136.234375 -107.453125 C 141.660156 -97.535156 144.375 -86.320312 144.375 -73.8125 Z M 120.84375 -78.5625 C 120.84375 -87.238281 118.925781 -94.703125 115.09375 -100.953125 C 111.257812 -107.210938 106.046875 -111.96875 99.453125 -115.21875 C 92.867188 -118.46875 85.570312 -120.09375 77.5625 -120.09375 C 66.050781 -120.09375 56.25 -116.421875 48.15625 -109.078125 C 40.070312 -101.742188 35.445312 -91.570312 34.28125 -78.5625 Z M 120.84375 -78.5625 "/></g></g></g></svg>