<svg xmlns="http://www.w3.org/2000/svg" xmlns:xlink="http://www.w3.org/1999/xlink" width="500" zoomAndPan="magnify" viewBox="0 0 375 374.999991" height="500" preserveAspectRatio="xMidYMid meet" version="1.0"><defs><g/></defs><g fill="#ffffff" fill-opacity="1"><g transform="translate(57.523738, 179.163183)"><g><path d="M 6.296875 -40.6875 C 5.859375 -40.6875 5.488281 -40.832031 5.1875 -41.125 C 4.882812 -41.425781 4.734375 -41.816406 4.734375 -42.296875 C 4.734375 -42.773438 4.882812 -43.164062 5.1875 -43.46875 C 5.488281 -43.769531 5.859375 -43.921875 6.296875 -43.921875 C 6.734375 -43.921875 7.101562 -43.769531 7.40625 -43.46875 C 7.707031 -43.164062 7.859375 -42.773438 7.859375 -42.296875 C 7.859375 -41.816406 7.707031 -41.425781 7.40625 -41.125 C 7.101562 -40.832031 6.734375 -40.6875 6.296875 -40.6875 Z M 6.90625 9.125 C 6.90625 11.082031 6.421875 12.585938 5.453125 13.640625 C 4.492188 14.703125 2.894531 15.234375 0.65625 15.234375 L -1.5 15.234375 L -1.5 14.046875 L 0.65625 14.046875 C 2.414062 14.046875 3.695312 13.65625 4.5 12.875 C 5.300781 12.09375 5.703125 10.722656 5.703125 8.765625 L 5.703125 -32.40625 L 6.90625 -32.40625 Z M 6.90625 9.125 "/></g></g></g><g fill="#ffffff" fill-opacity="1"><g transform="translate(73.063725, 179.163183)"><g><path d="M 19.4375 0.421875 C 16.4375 0.421875 13.734375 -0.242188 11.328125 -1.578125 C 8.929688 -2.921875 7.039062 -4.84375 5.65625 -7.34375 C 4.28125 -9.84375 3.59375 -12.796875 3.59375 -16.203125 C 3.59375 -19.597656 4.28125 -22.546875 5.65625 -25.046875 C 7.039062 -27.546875 8.929688 -29.460938 11.328125 -30.796875 C 13.734375 -32.140625 16.4375 -32.8125 19.4375 -32.8125 C 22.4375 -32.8125 25.132812 -32.140625 27.53125 -30.796875 C 29.9375 -29.460938 31.816406 -27.546875 33.171875 -25.046875 C 34.535156 -22.546875 35.21875 -19.597656 35.21875 -16.203125 C 35.21875 -12.796875 34.535156 -9.84375 33.171875 -7.34375 C 31.816406 -4.84375 29.9375 -2.921875 27.53125 -1.578125 C 25.132812 -0.242188 22.4375 0.421875 19.4375 0.421875 Z M 19.4375 -0.65625 C 22.039062 -0.65625 24.441406 -1.222656 26.640625 -2.359375 C 28.835938 -3.503906 30.613281 -5.238281 31.96875 -7.5625 C 33.332031 -9.882812 34.015625 -12.765625 34.015625 -16.203125 C 34.015625 -19.640625 33.332031 -22.515625 31.96875 -24.828125 C 30.613281 -27.148438 28.835938 -28.878906 26.640625 -30.015625 C 24.441406 -31.160156 22.039062 -31.734375 19.4375 -31.734375 C 16.84375 -31.734375 14.429688 -31.160156 12.203125 -30.015625 C 9.984375 -28.878906 8.191406 -27.140625 6.828125 -24.796875 C 5.472656 -22.460938 4.796875 -19.597656 4.796875 -16.203125 C 4.796875 -12.796875 5.472656 -9.921875 6.828125 -7.578125 C 8.191406 -5.242188 9.984375 -3.503906 12.203125 -2.359375 C 14.429688 -1.222656 16.84375 -0.65625 19.4375 -0.65625 Z M 19.4375 -0.65625 "/></g></g></g><g fill="#ffffff" fill-opacity="1"><g transform="translate(115.423685, 179.163183)"><g><path d="M 19.015625 -33.125 C 22.816406 -33.125 25.9375 -31.941406 28.375 -29.578125 C 30.820312 -27.222656 32.046875 -23.664062 32.046875 -18.90625 L 32.046875 0 L 30.90625 0 L 30.90625 -19.015625 C 30.90625 -23.253906 29.84375 -26.484375 27.71875 -28.703125 C 25.601562 -30.929688 22.703125 -32.046875 19.015625 -32.046875 C 15.179688 -32.046875 12.101562 -30.796875 9.78125 -28.296875 C 7.457031 -25.796875 6.296875 -22.101562 6.296875 -17.21875 L 6.296875 0 L 5.09375 0 L 5.09375 -32.40625 L 6.296875 -32.40625 L 6.296875 -23.875 C 7.054688 -26.875 8.578125 -29.164062 10.859375 -30.75 C 13.140625 -32.332031 15.859375 -33.125 19.015625 -33.125 Z M 19.015625 -33.125 "/></g></g></g><g fill="#ffffff" fill-opacity="1"><g transform="translate(155.803646, 179.163183)"><g><path d="M 3.59375 -16.203125 C 3.59375 -19.597656 4.253906 -22.546875 5.578125 -25.046875 C 6.898438 -27.546875 8.757812 -29.460938 11.15625 -30.796875 C 13.5625 -32.140625 16.300781 -32.8125 19.375 -32.8125 C 23.09375 -32.8125 26.242188 -31.84375 28.828125 -29.90625 C 31.410156 -27.96875 33.140625 -25.5 34.015625 -22.5 L 34.015625 -32.40625 L 35.15625 -32.40625 L 35.15625 0 L 34.015625 0 L 34.015625 -9.90625 C 33.140625 -6.90625 31.410156 -4.429688 28.828125 -2.484375 C 26.242188 -0.546875 23.09375 0.421875 19.375 0.421875 C 16.300781 0.421875 13.5625 -0.242188 11.15625 -1.578125 C 8.757812 -2.921875 6.898438 -4.84375 5.578125 -7.34375 C 4.253906 -9.84375 3.59375 -12.796875 3.59375 -16.203125 Z M 34.015625 -16.203125 C 34.015625 -19.273438 33.382812 -21.984375 32.125 -24.328125 C 30.863281 -26.671875 29.125 -28.488281 26.90625 -29.78125 C 24.6875 -31.082031 22.175781 -31.734375 19.375 -31.734375 C 16.414062 -31.734375 13.847656 -31.113281 11.671875 -29.875 C 9.492188 -28.632812 7.800781 -26.84375 6.59375 -24.5 C 5.394531 -22.164062 4.796875 -19.398438 4.796875 -16.203125 C 4.796875 -13.003906 5.394531 -10.234375 6.59375 -7.890625 C 7.800781 -5.546875 9.492188 -3.753906 11.671875 -2.515625 C 13.847656 -1.273438 16.414062 -0.65625 19.375 -0.65625 C 22.175781 -0.65625 24.6875 -1.304688 26.90625 -2.609375 C 29.125 -3.910156 30.863281 -5.726562 32.125 -8.0625 C 33.382812 -10.40625 34.015625 -13.117188 34.015625 -16.203125 Z M 34.015625 -16.203125 "/></g></g></g><g fill="#ffffff" fill-opacity="1"><g transform="translate(199.603604, 179.163183)"><g><path d="M 15.546875 0.421875 C 11.984375 0.421875 9.109375 -0.296875 6.921875 -1.734375 C 4.742188 -3.179688 3.476562 -5.363281 3.125 -8.28125 L 4.3125 -8.28125 C 4.5625 -5.882812 5.632812 -4.015625 7.53125 -2.671875 C 9.425781 -1.328125 12.113281 -0.65625 15.59375 -0.65625 C 17.351562 -0.65625 18.90625 -0.992188 20.25 -1.671875 C 21.59375 -2.359375 22.625 -3.269531 23.34375 -4.40625 C 24.0625 -5.550781 24.421875 -6.78125 24.421875 -8.09375 C 24.421875 -9.539062 24.007812 -10.710938 23.1875 -11.609375 C 22.363281 -12.503906 21.34375 -13.191406 20.125 -13.671875 C 18.90625 -14.160156 17.238281 -14.679688 15.125 -15.234375 C 12.757812 -15.835938 10.847656 -16.4375 9.390625 -17.03125 C 7.929688 -17.632812 6.691406 -18.554688 5.671875 -19.796875 C 4.648438 -21.035156 4.140625 -22.675781 4.140625 -24.71875 C 4.140625 -26.15625 4.578125 -27.492188 5.453125 -28.734375 C 6.335938 -29.972656 7.550781 -30.960938 9.09375 -31.703125 C 10.632812 -32.441406 12.363281 -32.8125 14.28125 -32.8125 C 17.5625 -32.8125 20.203125 -31.992188 22.203125 -30.359375 C 24.203125 -28.722656 25.28125 -26.441406 25.4375 -23.515625 L 24.234375 -23.515625 C 24.117188 -25.921875 23.207031 -27.890625 21.5 -29.421875 C 19.800781 -30.960938 17.394531 -31.734375 14.28125 -31.734375 C 12.601562 -31.734375 11.082031 -31.410156 9.71875 -30.765625 C 8.363281 -30.128906 7.296875 -29.269531 6.515625 -28.1875 C 5.734375 -27.113281 5.34375 -25.957031 5.34375 -24.71875 C 5.34375 -22.957031 5.800781 -21.535156 6.71875 -20.453125 C 7.632812 -19.378906 8.765625 -18.582031 10.109375 -18.0625 C 11.453125 -17.539062 13.242188 -16.976562 15.484375 -16.375 C 17.765625 -15.738281 19.550781 -15.160156 20.84375 -14.640625 C 22.144531 -14.117188 23.253906 -13.328125 24.171875 -12.265625 C 25.097656 -11.210938 25.5625 -9.820312 25.5625 -8.09375 C 25.5625 -6.5 25.117188 -5.050781 24.234375 -3.75 C 23.359375 -2.445312 22.160156 -1.425781 20.640625 -0.6875 C 19.117188 0.0507812 17.421875 0.421875 15.546875 0.421875 Z M 15.546875 0.421875 "/></g></g></g><g fill="#efe9ce" fill-opacity="1"><g transform="translate(63.457032, 237.83679)"><g><path d="M 34.625 -17.703125 C 34.625 -16.660156 34.5625 -15.5625 34.4375 -14.40625 L 8.15625 -14.40625 C 8.351562 -11.164062 9.460938 -8.632812 11.484375 -6.8125 C 13.503906 -4.988281 15.957031 -4.078125 18.84375 -4.078125 C 21.195312 -4.078125 23.164062 -4.625 24.75 -5.71875 C 26.332031 -6.820312 27.441406 -8.296875 28.078125 -10.140625 L 33.953125 -10.140625 C 33.078125 -6.984375 31.316406 -4.410156 28.671875 -2.421875 C 26.035156 -0.441406 22.757812 0.546875 18.84375 0.546875 C 15.71875 0.546875 12.925781 -0.148438 10.46875 -1.546875 C 8.007812 -2.953125 6.078125 -4.945312 4.671875 -7.53125 C 3.273438 -10.113281 2.578125 -13.101562 2.578125 -16.5 C 2.578125 -19.894531 3.253906 -22.875 4.609375 -25.4375 C 5.972656 -28 7.882812 -29.96875 10.34375 -31.34375 C 12.8125 -32.726562 15.644531 -33.421875 18.84375 -33.421875 C 21.957031 -33.421875 24.710938 -32.738281 27.109375 -31.375 C 29.515625 -30.019531 31.367188 -28.148438 32.671875 -25.765625 C 33.972656 -23.390625 34.625 -20.703125 34.625 -17.703125 Z M 28.984375 -18.84375 C 28.984375 -20.914062 28.519531 -22.703125 27.59375 -24.203125 C 26.675781 -25.703125 25.425781 -26.84375 23.84375 -27.625 C 22.269531 -28.40625 20.519531 -28.796875 18.59375 -28.796875 C 15.832031 -28.796875 13.484375 -27.914062 11.546875 -26.15625 C 9.609375 -24.394531 8.5 -21.957031 8.21875 -18.84375 Z M 28.984375 -18.84375 "/></g></g></g><g fill="#efe9ce" fill-opacity="1"><g transform="translate(100.656999, 237.83679)"><g><path d="M 10.078125 -26.765625 C 11.203125 -28.722656 12.84375 -30.320312 15 -31.5625 C 17.15625 -32.800781 19.613281 -33.421875 22.375 -33.421875 C 25.332031 -33.421875 27.992188 -32.71875 30.359375 -31.3125 C 32.722656 -29.914062 34.582031 -27.945312 35.9375 -25.40625 C 37.300781 -22.863281 37.984375 -19.914062 37.984375 -16.5625 C 37.984375 -13.238281 37.300781 -10.273438 35.9375 -7.671875 C 34.582031 -5.078125 32.710938 -3.054688 30.328125 -1.609375 C 27.953125 -0.171875 25.300781 0.546875 22.375 0.546875 C 19.539062 0.546875 17.050781 -0.0703125 14.90625 -1.3125 C 12.769531 -2.5625 11.160156 -4.144531 10.078125 -6.0625 L 10.078125 0 L 4.625 0 L 4.625 -44.40625 L 10.078125 -44.40625 Z M 32.40625 -16.5625 C 32.40625 -19.039062 31.90625 -21.195312 30.90625 -23.03125 C 29.90625 -24.875 28.550781 -26.273438 26.84375 -27.234375 C 25.144531 -28.203125 23.273438 -28.6875 21.234375 -28.6875 C 19.234375 -28.6875 17.382812 -28.191406 15.6875 -27.203125 C 13.988281 -26.222656 12.628906 -24.800781 11.609375 -22.9375 C 10.585938 -21.082031 10.078125 -18.9375 10.078125 -16.5 C 10.078125 -14.019531 10.585938 -11.847656 11.609375 -9.984375 C 12.628906 -8.128906 13.988281 -6.710938 15.6875 -5.734375 C 17.382812 -4.753906 19.234375 -4.265625 21.234375 -4.265625 C 23.273438 -4.265625 25.144531 -4.753906 26.84375 -5.734375 C 28.550781 -6.710938 29.90625 -8.128906 30.90625 -9.984375 C 31.90625 -11.847656 32.40625 -14.039062 32.40625 -16.5625 Z M 32.40625 -16.5625 "/></g></g></g><g fill="#efe9ce" fill-opacity="1"><g transform="translate(141.216963, 237.83679)"><g><path d="M 34.625 -17.703125 C 34.625 -16.660156 34.5625 -15.5625 34.4375 -14.40625 L 8.15625 -14.40625 C 8.351562 -11.164062 9.460938 -8.632812 11.484375 -6.8125 C 13.503906 -4.988281 15.957031 -4.078125 18.84375 -4.078125 C 21.195312 -4.078125 23.164062 -4.625 24.75 -5.71875 C 26.332031 -6.820312 27.441406 -8.296875 28.078125 -10.140625 L 33.953125 -10.140625 C 33.078125 -6.984375 31.316406 -4.410156 28.671875 -2.421875 C 26.035156 -0.441406 22.757812 0.546875 18.84375 0.546875 C 15.71875 0.546875 12.925781 -0.148438 10.46875 -1.546875 C 8.007812 -2.953125 6.078125 -4.945312 4.671875 -7.53125 C 3.273438 -10.113281 2.578125 -13.101562 2.578125 -16.5 C 2.578125 -19.894531 3.253906 -22.875 4.609375 -25.4375 C 5.972656 -28 7.882812 -29.96875 10.34375 -31.34375 C 12.8125 -32.726562 15.644531 -33.421875 18.84375 -33.421875 C 21.957031 -33.421875 24.710938 -32.738281 27.109375 -31.375 C 29.515625 -30.019531 31.367188 -28.148438 32.671875 -25.765625 C 33.972656 -23.390625 34.625 -20.703125 34.625 -17.703125 Z M 28.984375 -18.84375 C 28.984375 -20.914062 28.519531 -22.703125 27.59375 -24.203125 C 26.675781 -25.703125 25.425781 -26.84375 23.84375 -27.625 C 22.269531 -28.40625 20.519531 -28.796875 18.59375 -28.796875 C 15.832031 -28.796875 13.484375 -27.914062 11.546875 -26.15625 C 9.609375 -24.394531 8.5 -21.957031 8.21875 -18.84375 Z M 28.984375 -18.84375 "/></g></g></g><g fill="#efe9ce" fill-opacity="1"><g transform="translate(178.416931, 237.83679)"><g><path d="M 10.078125 -27.546875 C 11.035156 -29.421875 12.40625 -30.878906 14.1875 -31.921875 C 15.96875 -32.960938 18.140625 -33.484375 20.703125 -33.484375 L 20.703125 -27.84375 L 19.265625 -27.84375 C 13.140625 -27.84375 10.078125 -24.519531 10.078125 -17.875 L 10.078125 0 L 4.625 0 L 4.625 -32.875 L 10.078125 -32.875 Z M 10.078125 -27.546875 "/></g></g></g><g fill="#efe9ce" fill-opacity="1"><g transform="translate(200.796904, 237.83679)"><g><path d="M 11.28125 -28.375 L 11.28125 -9 C 11.28125 -7.394531 11.617188 -6.265625 12.296875 -5.609375 C 12.972656 -4.953125 14.15625 -4.625 15.84375 -4.625 L 19.859375 -4.625 L 19.859375 0 L 14.9375 0 C 11.894531 0 9.613281 -0.695312 8.09375 -2.09375 C 6.570312 -3.5 5.8125 -5.800781 5.8125 -9 L 5.8125 -28.375 L 1.5625 -28.375 L 1.5625 -32.875 L 5.8125 -32.875 L 5.8125 -41.15625 L 11.28125 -41.15625 L 11.28125 -32.875 L 19.859375 -32.875 L 19.859375 -28.375 Z M 11.28125 -28.375 "/></g></g></g><path stroke-linecap="round" transform="matrix(0, 0.75, -0.75, 0, 244.614687, 148.928793)" fill="none" stroke-linejoin="miter" d="M 1.001192 1.001874 L 119.6262 1.001874 " stroke="#ffffff" stroke-width="2" stroke-opacity="1" stroke-miterlimit="4"/><g fill="#ffffff" fill-opacity="1"><g transform="translate(254.618601, 234.547763)"><g><path d="M 7.03125 -10.0625 C 7.96875 -10.0625 8.816406 -9.847656 9.578125 -9.421875 C 10.335938 -9.003906 10.929688 -8.410156 11.359375 -7.640625 C 11.796875 -6.867188 12.015625 -5.988281 12.015625 -5 C 12.015625 -4 11.796875 -3.109375 11.359375 -2.328125 C 10.929688 -1.554688 10.335938 -0.957031 9.578125 -0.53125 C 8.828125 -0.113281 7.976562 0.09375 7.03125 0.09375 C 6.21875 0.09375 5.484375 -0.0703125 4.828125 -0.40625 C 4.179688 -0.738281 3.648438 -1.226562 3.234375 -1.875 L 3.234375 3.6875 L 1.875 3.6875 L 1.875 -10 L 3.171875 -10 L 3.171875 -8.015625 C 3.578125 -8.671875 4.113281 -9.175781 4.78125 -9.53125 C 5.445312 -9.882812 6.195312 -10.0625 7.03125 -10.0625 Z M 6.9375 -1.109375 C 7.632812 -1.109375 8.265625 -1.269531 8.828125 -1.59375 C 9.398438 -1.914062 9.847656 -2.375 10.171875 -2.96875 C 10.492188 -3.5625 10.65625 -4.238281 10.65625 -5 C 10.65625 -5.757812 10.492188 -6.429688 10.171875 -7.015625 C 9.847656 -7.609375 9.398438 -8.066406 8.828125 -8.390625 C 8.265625 -8.722656 7.632812 -8.890625 6.9375 -8.890625 C 6.226562 -8.890625 5.59375 -8.722656 5.03125 -8.390625 C 4.46875 -8.066406 4.023438 -7.609375 3.703125 -7.015625 C 3.378906 -6.429688 3.21875 -5.757812 3.21875 -5 C 3.21875 -4.238281 3.378906 -3.5625 3.703125 -2.96875 C 4.023438 -2.375 4.46875 -1.914062 5.03125 -1.59375 C 5.59375 -1.269531 6.226562 -1.109375 6.9375 -1.109375 Z M 6.9375 -1.109375 "/></g></g></g><g fill="#ffffff" fill-opacity="1"><g transform="translate(270.309972, 234.547763)"><g><path d="M 5.96875 0.09375 C 5 0.09375 4.128906 -0.125 3.359375 -0.5625 C 2.585938 -1 1.976562 -1.601562 1.53125 -2.375 C 1.09375 -3.144531 0.875 -4.019531 0.875 -5 C 0.875 -5.96875 1.09375 -6.835938 1.53125 -7.609375 C 1.976562 -8.390625 2.585938 -8.992188 3.359375 -9.421875 C 4.128906 -9.847656 5 -10.0625 5.96875 -10.0625 C 6.925781 -10.0625 7.789062 -9.847656 8.5625 -9.421875 C 9.34375 -8.992188 9.945312 -8.390625 10.375 -7.609375 C 10.8125 -6.835938 11.03125 -5.96875 11.03125 -5 C 11.03125 -4.019531 10.8125 -3.144531 10.375 -2.375 C 9.945312 -1.601562 9.34375 -1 8.5625 -0.5625 C 7.789062 -0.125 6.925781 0.09375 5.96875 0.09375 Z M 5.96875 -1.109375 C 6.675781 -1.109375 7.3125 -1.269531 7.875 -1.59375 C 8.4375 -1.914062 8.875 -2.375 9.1875 -2.96875 C 9.507812 -3.5625 9.671875 -4.238281 9.671875 -5 C 9.671875 -5.757812 9.507812 -6.4375 9.1875 -7.03125 C 8.875 -7.625 8.4375 -8.082031 7.875 -8.40625 C 7.3125 -8.726562 6.675781 -8.890625 5.96875 -8.890625 C 5.257812 -8.890625 4.625 -8.726562 4.0625 -8.40625 C 3.5 -8.082031 3.050781 -7.625 2.71875 -7.03125 C 2.394531 -6.4375 2.234375 -5.757812 2.234375 -5 C 2.234375 -4.238281 2.394531 -3.5625 2.71875 -2.96875 C 3.050781 -2.375 3.5 -1.914062 4.0625 -1.59375 C 4.625 -1.269531 5.257812 -1.109375 5.96875 -1.109375 Z M 5.96875 -1.109375 "/></g></g></g><g fill="#ffffff" fill-opacity="1"><g transform="translate(285.032543, 234.547763)"><g><path d="M 1.875 -14.09375 L 3.234375 -14.09375 L 3.234375 0 L 1.875 0 Z M 1.875 -14.09375 "/></g></g></g><g fill="#ffffff" fill-opacity="1"><g transform="translate(292.954509, 234.547763)"><g><path d="M 1.875 -10 L 3.234375 -10 L 3.234375 0 L 1.875 0 Z M 2.5625 -12.171875 C 2.28125 -12.171875 2.046875 -12.265625 1.859375 -12.453125 C 1.671875 -12.648438 1.578125 -12.878906 1.578125 -13.140625 C 1.578125 -13.398438 1.671875 -13.625 1.859375 -13.8125 C 2.046875 -14 2.28125 -14.09375 2.5625 -14.09375 C 2.84375 -14.09375 3.078125 -14 3.265625 -13.8125 C 3.453125 -13.632812 3.546875 -13.421875 3.546875 -13.171875 C 3.546875 -12.890625 3.453125 -12.648438 3.265625 -12.453125 C 3.078125 -12.265625 2.84375 -12.171875 2.5625 -12.171875 Z M 2.5625 -12.171875 "/></g></g></g><g fill="#ffffff" fill-opacity="1"><g transform="translate(300.876475, 234.547763)"><g><path d="M 7.140625 -0.609375 C 6.890625 -0.378906 6.578125 -0.203125 6.203125 -0.078125 C 5.828125 0.0351562 5.4375 0.09375 5.03125 0.09375 C 4.09375 0.09375 3.367188 -0.15625 2.859375 -0.65625 C 2.359375 -1.164062 2.109375 -1.882812 2.109375 -2.8125 L 2.109375 -8.859375 L 0.328125 -8.859375 L 0.328125 -10 L 2.109375 -10 L 2.109375 -12.171875 L 3.453125 -12.171875 L 3.453125 -10 L 6.5 -10 L 6.5 -8.859375 L 3.453125 -8.859375 L 3.453125 -2.890625 C 3.453125 -2.296875 3.597656 -1.84375 3.890625 -1.53125 C 4.191406 -1.21875 4.625 -1.0625 5.1875 -1.0625 C 5.46875 -1.0625 5.738281 -1.101562 6 -1.1875 C 6.257812 -1.28125 6.484375 -1.410156 6.671875 -1.578125 Z M 7.140625 -0.609375 "/></g></g></g><g fill="#ffffff" fill-opacity="1"><g transform="translate(311.400908, 234.547763)"><g><path d="M 1.875 -10 L 3.234375 -10 L 3.234375 0 L 1.875 0 Z M 2.5625 -12.171875 C 2.28125 -12.171875 2.046875 -12.265625 1.859375 -12.453125 C 1.671875 -12.648438 1.578125 -12.878906 1.578125 -13.140625 C 1.578125 -13.398438 1.671875 -13.625 1.859375 -13.8125 C 2.046875 -14 2.28125 -14.09375 2.5625 -14.09375 C 2.84375 -14.09375 3.078125 -14 3.265625 -13.8125 C 3.453125 -13.632812 3.546875 -13.421875 3.546875 -13.171875 C 3.546875 -12.890625 3.453125 -12.648438 3.265625 -12.453125 C 3.078125 -12.265625 2.84375 -12.171875 2.5625 -12.171875 Z M 2.5625 -12.171875 "/></g></g></g><g fill="#ffffff" fill-opacity="1"><g transform="translate(319.322874, 234.547763)"><g><path d="M 5.59375 -5.015625 L 3.234375 -2.84375 L 3.234375 0 L 1.875 0 L 1.875 -14.09375 L 3.234375 -14.09375 L 3.234375 -4.546875 L 9.203125 -10 L 10.875 -10 L 6.59375 -5.90625 L 11.265625 0 L 9.609375 0 Z M 5.59375 -5.015625 "/></g></g></g></svg>