<svg xmlns="http://www.w3.org/2000/svg" xmlns:xlink="http://www.w3.org/1999/xlink" width="500" zoomAndPan="magnify" viewBox="0 0 375 374.999991" height="500" preserveAspectRatio="xMidYMid meet" version="1.0"><defs><g/></defs><rect x="-37.5" width="450" fill="#ffffff" y="-37.499999" height="449.999989" fill-opacity="1"/><rect x="-37.5" width="450" fill="#293731" y="-37.499999" height="449.999989" fill-opacity="1"/><g fill="#ffffff" fill-opacity="1"><g transform="translate(73.469381, 178.541647)"><g><path d="M 8.40625 -54.234375 C 7.8125 -54.234375 7.3125 -54.429688 6.90625 -54.828125 C 6.507812 -55.234375 6.3125 -55.757812 6.3125 -56.40625 C 6.3125 -57.039062 6.507812 -57.554688 6.90625 -57.953125 C 7.3125 -58.359375 7.8125 -58.5625 8.40625 -58.5625 C 8.988281 -58.5625 9.476562 -58.359375 9.875 -57.953125 C 10.28125 -57.554688 10.484375 -57.039062 10.484375 -56.40625 C 10.484375 -55.757812 10.28125 -55.234375 9.875 -54.828125 C 9.476562 -54.429688 8.988281 -54.234375 8.40625 -54.234375 Z M 9.203125 12.15625 C 9.203125 14.769531 8.5625 16.78125 7.28125 18.1875 C 6 19.601562 3.863281 20.3125 0.875 20.3125 L -2 20.3125 L -2 18.71875 L 0.875 18.71875 C 3.226562 18.71875 4.9375 18.195312 6 17.15625 C 7.0625 16.113281 7.59375 14.289062 7.59375 11.6875 L 7.59375 -43.203125 L 9.203125 -43.203125 Z M 9.203125 12.15625 "/></g></g></g><g fill="#ffffff" fill-opacity="1"><g transform="translate(94.187846, 178.541647)"><g><path d="M 25.921875 0.5625 C 21.921875 0.5625 18.316406 -0.328125 15.109375 -2.109375 C 11.910156 -3.898438 9.390625 -6.460938 7.546875 -9.796875 C 5.710938 -13.128906 4.796875 -17.0625 4.796875 -21.59375 C 4.796875 -26.132812 5.710938 -30.070312 7.546875 -33.40625 C 9.390625 -36.738281 11.910156 -39.296875 15.109375 -41.078125 C 18.316406 -42.867188 21.921875 -43.765625 25.921875 -43.765625 C 29.921875 -43.765625 33.519531 -42.867188 36.71875 -41.078125 C 39.914062 -39.296875 42.421875 -36.738281 44.234375 -33.40625 C 46.046875 -30.070312 46.953125 -26.132812 46.953125 -21.59375 C 46.953125 -17.0625 46.046875 -13.128906 44.234375 -9.796875 C 42.421875 -6.460938 39.914062 -3.898438 36.71875 -2.109375 C 33.519531 -0.328125 29.921875 0.5625 25.921875 0.5625 Z M 25.921875 -0.875 C 29.390625 -0.875 32.585938 -1.632812 35.515625 -3.15625 C 38.453125 -4.675781 40.828125 -6.984375 42.640625 -10.078125 C 44.453125 -13.171875 45.359375 -17.007812 45.359375 -21.59375 C 45.359375 -26.1875 44.453125 -30.03125 42.640625 -33.125 C 40.828125 -36.21875 38.453125 -38.519531 35.515625 -40.03125 C 32.585938 -41.550781 29.390625 -42.3125 25.921875 -42.3125 C 22.453125 -42.3125 19.238281 -41.550781 16.28125 -40.03125 C 13.320312 -38.519531 10.9375 -36.203125 9.125 -33.078125 C 7.3125 -29.960938 6.40625 -26.132812 6.40625 -21.59375 C 6.40625 -17.0625 7.3125 -13.234375 9.125 -10.109375 C 10.9375 -6.992188 13.320312 -4.675781 16.28125 -3.15625 C 19.238281 -1.632812 22.453125 -0.875 25.921875 -0.875 Z M 25.921875 -0.875 "/></g></g></g><g fill="#ffffff" fill-opacity="1"><g transform="translate(150.662833, 178.541647)"><g><path d="M 25.359375 -44.15625 C 30.421875 -44.15625 34.578125 -42.582031 37.828125 -39.4375 C 41.085938 -36.289062 42.71875 -31.546875 42.71875 -25.203125 L 42.71875 0 L 41.203125 0 L 41.203125 -25.359375 C 41.203125 -31.015625 39.785156 -35.320312 36.953125 -38.28125 C 34.128906 -41.238281 30.265625 -42.71875 25.359375 -42.71875 C 20.242188 -42.71875 16.140625 -41.050781 13.046875 -37.71875 C 9.953125 -34.382812 8.40625 -29.460938 8.40625 -22.953125 L 8.40625 0 L 6.796875 0 L 6.796875 -43.203125 L 8.40625 -43.203125 L 8.40625 -31.84375 C 9.414062 -35.84375 11.441406 -38.894531 14.484375 -41 C 17.523438 -43.101562 21.148438 -44.15625 25.359375 -44.15625 Z M 25.359375 -44.15625 "/></g></g></g><g fill="#ffffff" fill-opacity="1"><g transform="translate(204.498069, 178.541647)"><g><path d="M 4.796875 -21.59375 C 4.796875 -26.132812 5.675781 -30.070312 7.4375 -33.40625 C 9.195312 -36.738281 11.675781 -39.296875 14.875 -41.078125 C 18.082031 -42.867188 21.738281 -43.765625 25.84375 -43.765625 C 30.800781 -43.765625 35 -42.46875 38.4375 -39.875 C 41.875 -37.289062 44.179688 -34 45.359375 -30 L 45.359375 -43.203125 L 46.875 -43.203125 L 46.875 0 L 45.359375 0 L 45.359375 -13.203125 C 44.179688 -9.203125 41.875 -5.90625 38.4375 -3.3125 C 35 -0.726562 30.800781 0.5625 25.84375 0.5625 C 21.738281 0.5625 18.082031 -0.328125 14.875 -2.109375 C 11.675781 -3.898438 9.195312 -6.460938 7.4375 -9.796875 C 5.675781 -13.128906 4.796875 -17.0625 4.796875 -21.59375 Z M 45.359375 -21.59375 C 45.359375 -25.707031 44.515625 -29.320312 42.828125 -32.4375 C 41.148438 -35.5625 38.832031 -37.988281 35.875 -39.71875 C 32.914062 -41.445312 29.570312 -42.3125 25.84375 -42.3125 C 21.894531 -42.3125 18.46875 -41.484375 15.5625 -39.828125 C 12.65625 -38.179688 10.398438 -35.796875 8.796875 -32.671875 C 7.203125 -29.554688 6.40625 -25.863281 6.40625 -21.59375 C 6.40625 -17.332031 7.203125 -13.640625 8.796875 -10.515625 C 10.398438 -7.398438 12.65625 -5.015625 15.5625 -3.359375 C 18.46875 -1.703125 21.894531 -0.875 25.84375 -0.875 C 29.570312 -0.875 32.914062 -1.738281 35.875 -3.46875 C 38.832031 -5.207031 41.148438 -7.632812 42.828125 -10.75 C 44.515625 -13.875 45.359375 -17.488281 45.359375 -21.59375 Z M 45.359375 -21.59375 "/></g></g></g><g fill="#ffffff" fill-opacity="1"><g transform="translate(262.892871, 178.541647)"><g><path d="M 20.71875 0.5625 C 15.96875 0.5625 12.140625 -0.394531 9.234375 -2.3125 C 6.328125 -4.238281 4.632812 -7.148438 4.15625 -11.046875 L 5.765625 -11.046875 C 6.078125 -7.835938 7.5 -5.335938 10.03125 -3.546875 C 12.570312 -1.765625 16.160156 -0.875 20.796875 -0.875 C 23.140625 -0.875 25.207031 -1.328125 27 -2.234375 C 28.789062 -3.140625 30.164062 -4.351562 31.125 -5.875 C 32.082031 -7.394531 32.5625 -9.035156 32.5625 -10.796875 C 32.5625 -12.722656 32.015625 -14.285156 30.921875 -15.484375 C 29.828125 -16.679688 28.46875 -17.597656 26.84375 -18.234375 C 25.21875 -18.878906 22.988281 -19.570312 20.15625 -20.3125 C 17.007812 -21.113281 14.460938 -21.914062 12.515625 -22.71875 C 10.566406 -23.519531 8.910156 -24.742188 7.546875 -26.390625 C 6.191406 -28.046875 5.515625 -30.234375 5.515625 -32.953125 C 5.515625 -34.878906 6.101562 -36.664062 7.28125 -38.3125 C 8.457031 -39.96875 10.070312 -41.289062 12.125 -42.28125 C 14.175781 -43.269531 16.484375 -43.765625 19.046875 -43.765625 C 23.410156 -43.765625 26.925781 -42.671875 29.59375 -40.484375 C 32.257812 -38.296875 33.703125 -35.253906 33.921875 -31.359375 L 32.3125 -31.359375 C 32.15625 -34.554688 30.941406 -37.179688 28.671875 -39.234375 C 26.410156 -41.285156 23.203125 -42.3125 19.046875 -42.3125 C 16.804688 -42.3125 14.773438 -41.882812 12.953125 -41.03125 C 11.140625 -40.1875 9.710938 -39.039062 8.671875 -37.59375 C 7.640625 -36.15625 7.125 -34.609375 7.125 -32.953125 C 7.125 -30.609375 7.734375 -28.71875 8.953125 -27.28125 C 10.179688 -25.84375 11.6875 -24.773438 13.46875 -24.078125 C 15.257812 -23.390625 17.648438 -22.644531 20.640625 -21.84375 C 23.679688 -20.988281 26.066406 -20.210938 27.796875 -19.515625 C 29.535156 -18.828125 31.015625 -17.773438 32.234375 -16.359375 C 33.460938 -14.941406 34.078125 -13.085938 34.078125 -10.796875 C 34.078125 -8.660156 33.488281 -6.726562 32.3125 -5 C 31.144531 -3.269531 29.546875 -1.910156 27.515625 -0.921875 C 25.492188 0.0664062 23.226562 0.5625 20.71875 0.5625 Z M 20.71875 0.5625 "/></g></g></g><g fill="#efe9ce" fill-opacity="1"><g transform="translate(81.386718, 251.208324)"><g><path d="M 46.15625 -23.59375 C 46.15625 -22.207031 46.078125 -20.742188 45.921875 -19.203125 L 10.875 -19.203125 C 11.144531 -14.878906 12.625 -11.503906 15.3125 -9.078125 C 18.007812 -6.648438 21.28125 -5.4375 25.125 -5.4375 C 28.269531 -5.4375 30.894531 -6.171875 33 -7.640625 C 35.101562 -9.109375 36.582031 -11.066406 37.4375 -13.515625 L 45.28125 -13.515625 C 44.101562 -9.304688 41.753906 -5.878906 38.234375 -3.234375 C 34.710938 -0.597656 30.34375 0.71875 25.125 0.71875 C 20.957031 0.71875 17.234375 -0.210938 13.953125 -2.078125 C 10.679688 -3.941406 8.109375 -6.59375 6.234375 -10.03125 C 4.367188 -13.476562 3.4375 -17.46875 3.4375 -22 C 3.4375 -26.53125 4.34375 -30.503906 6.15625 -33.921875 C 7.96875 -37.335938 10.515625 -39.960938 13.796875 -41.796875 C 17.078125 -43.640625 20.851562 -44.5625 25.125 -44.5625 C 29.28125 -44.5625 32.957031 -43.65625 36.15625 -41.84375 C 39.351562 -40.03125 41.816406 -37.535156 43.546875 -34.359375 C 45.285156 -31.179688 46.15625 -27.59375 46.15625 -23.59375 Z M 38.640625 -25.125 C 38.640625 -27.894531 38.023438 -30.28125 36.796875 -32.28125 C 35.566406 -34.28125 33.898438 -35.800781 31.796875 -36.84375 C 29.691406 -37.882812 27.359375 -38.40625 24.796875 -38.40625 C 21.117188 -38.40625 17.984375 -37.226562 15.390625 -34.875 C 12.804688 -32.53125 11.328125 -29.28125 10.953125 -25.125 Z M 38.640625 -25.125 "/></g></g></g><g fill="#efe9ce" fill-opacity="1"><g transform="translate(130.981895, 251.208324)"><g><path d="M 13.4375 -35.6875 C 14.9375 -38.289062 17.125 -40.421875 20 -42.078125 C 22.875 -43.734375 26.15625 -44.5625 29.84375 -44.5625 C 33.789062 -44.5625 37.335938 -43.625 40.484375 -41.75 C 43.628906 -39.882812 46.109375 -37.257812 47.921875 -33.875 C 49.734375 -30.488281 50.640625 -26.554688 50.640625 -22.078125 C 50.640625 -17.648438 49.734375 -13.703125 47.921875 -10.234375 C 46.109375 -6.773438 43.613281 -4.082031 40.4375 -2.15625 C 37.269531 -0.238281 33.738281 0.71875 29.84375 0.71875 C 26.050781 0.71875 22.726562 -0.101562 19.875 -1.75 C 17.019531 -3.40625 14.875 -5.515625 13.4375 -8.078125 L 13.4375 0 L 6.15625 0 L 6.15625 -59.203125 L 13.4375 -59.203125 Z M 43.203125 -22.078125 C 43.203125 -25.390625 42.535156 -28.269531 41.203125 -30.71875 C 39.867188 -33.175781 38.066406 -35.039062 35.796875 -36.3125 C 33.535156 -37.59375 31.039062 -38.234375 28.3125 -38.234375 C 25.644531 -38.234375 23.175781 -37.578125 20.90625 -36.265625 C 18.644531 -34.960938 16.832031 -33.070312 15.46875 -30.59375 C 14.113281 -28.113281 13.4375 -25.25 13.4375 -22 C 13.4375 -18.695312 14.113281 -15.800781 15.46875 -13.3125 C 16.832031 -10.832031 18.644531 -8.941406 20.90625 -7.640625 C 23.175781 -6.335938 25.644531 -5.6875 28.3125 -5.6875 C 31.039062 -5.6875 33.535156 -6.335938 35.796875 -7.640625 C 38.066406 -8.941406 39.867188 -10.832031 41.203125 -13.3125 C 42.535156 -15.800781 43.203125 -18.722656 43.203125 -22.078125 Z M 43.203125 -22.078125 "/></g></g></g><g fill="#efe9ce" fill-opacity="1"><g transform="translate(185.056644, 251.208324)"><g><path d="M 46.15625 -23.59375 C 46.15625 -22.207031 46.078125 -20.742188 45.921875 -19.203125 L 10.875 -19.203125 C 11.144531 -14.878906 12.625 -11.503906 15.3125 -9.078125 C 18.007812 -6.648438 21.28125 -5.4375 25.125 -5.4375 C 28.269531 -5.4375 30.894531 -6.171875 33 -7.640625 C 35.101562 -9.109375 36.582031 -11.066406 37.4375 -13.515625 L 45.28125 -13.515625 C 44.101562 -9.304688 41.753906 -5.878906 38.234375 -3.234375 C 34.710938 -0.597656 30.34375 0.71875 25.125 0.71875 C 20.957031 0.71875 17.234375 -0.210938 13.953125 -2.078125 C 10.679688 -3.941406 8.109375 -6.59375 6.234375 -10.03125 C 4.367188 -13.476562 3.4375 -17.46875 3.4375 -22 C 3.4375 -26.53125 4.34375 -30.503906 6.15625 -33.921875 C 7.96875 -37.335938 10.515625 -39.960938 13.796875 -41.796875 C 17.078125 -43.640625 20.851562 -44.5625 25.125 -44.5625 C 29.28125 -44.5625 32.957031 -43.65625 36.15625 -41.84375 C 39.351562 -40.03125 41.816406 -37.535156 43.546875 -34.359375 C 45.285156 -31.179688 46.15625 -27.59375 46.15625 -23.59375 Z M 38.640625 -25.125 C 38.640625 -27.894531 38.023438 -30.28125 36.796875 -32.28125 C 35.566406 -34.28125 33.898438 -35.800781 31.796875 -36.84375 C 29.691406 -37.882812 27.359375 -38.40625 24.796875 -38.40625 C 21.117188 -38.40625 17.984375 -37.226562 15.390625 -34.875 C 12.804688 -32.53125 11.328125 -29.28125 10.953125 -25.125 Z M 38.640625 -25.125 "/></g></g></g><g fill="#efe9ce" fill-opacity="1"><g transform="translate(234.651821, 251.208324)"><g><path d="M 13.4375 -36.71875 C 14.71875 -39.226562 16.546875 -41.175781 18.921875 -42.5625 C 21.296875 -43.945312 24.1875 -44.640625 27.59375 -44.640625 L 27.59375 -37.125 L 25.6875 -37.125 C 17.519531 -37.125 13.4375 -32.695312 13.4375 -23.84375 L 13.4375 0 L 6.15625 0 L 6.15625 -43.84375 L 13.4375 -43.84375 Z M 13.4375 -36.71875 "/></g></g></g><g fill="#efe9ce" fill-opacity="1"><g transform="translate(264.488923, 251.208324)"><g><path d="M 15.046875 -37.84375 L 15.046875 -12 C 15.046875 -9.863281 15.5 -8.351562 16.40625 -7.46875 C 17.3125 -6.59375 18.882812 -6.15625 21.125 -6.15625 L 26.484375 -6.15625 L 26.484375 0 L 19.921875 0 C 15.867188 0 12.828125 -0.929688 10.796875 -2.796875 C 8.773438 -4.660156 7.765625 -7.726562 7.765625 -12 L 7.765625 -37.84375 L 2.078125 -37.84375 L 2.078125 -43.84375 L 7.765625 -43.84375 L 7.765625 -54.875 L 15.046875 -54.875 L 15.046875 -43.84375 L 26.484375 -43.84375 L 26.484375 -37.84375 Z M 15.046875 -37.84375 "/></g></g></g></svg>