<svg xmlns="http://www.w3.org/2000/svg" xmlns:xlink="http://www.w3.org/1999/xlink" width="310" zoomAndPan="magnify" viewBox="0 0 232.5 74.999997" height="100" preserveAspectRatio="xMidYMid meet" version="1.0"><defs><g/></defs><g fill="#efe9ce" fill-opacity="1"><g transform="translate(9.817015, 47.054443)"><g><path d="M 13.59375 -20.8125 L 13.59375 -5.8125 C 13.59375 -3.957031 13.023438 -2.488281 11.890625 -1.40625 C 10.765625 -0.332031 9.285156 0.203125 7.453125 0.203125 C 5.617188 0.203125 4.132812 -0.332031 3 -1.40625 C 1.875 -2.488281 1.3125 -3.957031 1.3125 -5.8125 L 4.765625 -5.8125 C 4.785156 -4.894531 5.019531 -4.164062 5.46875 -3.625 C 5.914062 -3.082031 6.578125 -2.8125 7.453125 -2.8125 C 8.328125 -2.8125 8.992188 -3.082031 9.453125 -3.625 C 9.921875 -4.175781 10.15625 -4.90625 10.15625 -5.8125 L 10.15625 -20.8125 Z M 13.59375 -20.8125 "/></g></g></g><g fill="#efe9ce" fill-opacity="1"><g transform="translate(28.466899, 47.054443)"><g><path d="M 11.734375 0.203125 C 9.796875 0.203125 8.015625 -0.25 6.390625 -1.15625 C 4.765625 -2.0625 3.476562 -3.328125 2.53125 -4.953125 C 1.582031 -6.578125 1.109375 -8.410156 1.109375 -10.453125 C 1.109375 -12.484375 1.582031 -14.304688 2.53125 -15.921875 C 3.476562 -17.546875 4.765625 -18.8125 6.390625 -19.71875 C 8.015625 -20.625 9.796875 -21.078125 11.734375 -21.078125 C 13.691406 -21.078125 15.484375 -20.625 17.109375 -19.71875 C 18.734375 -18.8125 20.015625 -17.546875 20.953125 -15.921875 C 21.890625 -14.304688 22.359375 -12.484375 22.359375 -10.453125 C 22.359375 -8.410156 21.890625 -6.578125 20.953125 -4.953125 C 20.015625 -3.328125 18.734375 -2.0625 17.109375 -1.15625 C 15.484375 -0.25 13.691406 0.203125 11.734375 0.203125 Z M 11.734375 -2.75 C 13.109375 -2.75 14.332031 -3.0625 15.40625 -3.6875 C 16.488281 -4.320312 17.332031 -5.222656 17.9375 -6.390625 C 18.550781 -7.554688 18.859375 -8.910156 18.859375 -10.453125 C 18.859375 -11.984375 18.550781 -13.328125 17.9375 -14.484375 C 17.332031 -15.640625 16.488281 -16.523438 15.40625 -17.140625 C 14.332031 -17.765625 13.109375 -18.078125 11.734375 -18.078125 C 10.359375 -18.078125 9.128906 -17.765625 8.046875 -17.140625 C 6.972656 -16.523438 6.128906 -15.640625 5.515625 -14.484375 C 4.910156 -13.328125 4.609375 -11.984375 4.609375 -10.453125 C 4.609375 -8.910156 4.910156 -7.554688 5.515625 -6.390625 C 6.128906 -5.222656 6.972656 -4.320312 8.046875 -3.6875 C 9.128906 -3.0625 10.359375 -2.75 11.734375 -2.75 Z M 11.734375 -2.75 "/></g></g></g><g fill="#efe9ce" fill-opacity="1"><g transform="translate(53.702606, 47.054443)"><g><path d="M 19.34375 0 L 15.921875 0 L 5.65625 -15.53125 L 5.65625 0 L 2.25 0 L 2.25 -20.84375 L 5.65625 -20.84375 L 15.921875 -5.328125 L 15.921875 -20.84375 L 19.34375 -20.84375 Z M 19.34375 0 "/></g></g></g><g fill="#efe9ce" fill-opacity="1"><g transform="translate(77.052371, 47.054443)"><g><path d="M 14.796875 -4.25 L 6.078125 -4.25 L 4.578125 0 L 1.015625 0 L 8.46875 -20.84375 L 12.421875 -20.84375 L 19.875 0 L 16.28125 0 Z M 13.828125 -7.03125 L 10.453125 -16.703125 L 7.03125 -7.03125 Z M 13.828125 -7.03125 "/></g></g></g><g fill="#efe9ce" fill-opacity="1"><g transform="translate(99.683688, 47.054443)"><g><path d="M 9.09375 0.203125 C 7.695312 0.203125 6.441406 -0.0351562 5.328125 -0.515625 C 4.210938 -1.003906 3.332031 -1.695312 2.6875 -2.59375 C 2.050781 -3.5 1.734375 -4.550781 1.734375 -5.75 L 5.390625 -5.75 C 5.472656 -4.851562 5.828125 -4.113281 6.453125 -3.53125 C 7.078125 -2.957031 7.957031 -2.671875 9.09375 -2.671875 C 10.28125 -2.671875 11.203125 -2.953125 11.859375 -3.515625 C 12.515625 -4.085938 12.84375 -4.820312 12.84375 -5.71875 C 12.84375 -6.414062 12.632812 -6.984375 12.21875 -7.421875 C 11.8125 -7.859375 11.304688 -8.195312 10.703125 -8.4375 C 10.097656 -8.675781 9.253906 -8.9375 8.171875 -9.21875 C 6.816406 -9.582031 5.710938 -9.945312 4.859375 -10.3125 C 4.015625 -10.6875 3.289062 -11.257812 2.6875 -12.03125 C 2.09375 -12.8125 1.796875 -13.847656 1.796875 -15.140625 C 1.796875 -16.335938 2.09375 -17.382812 2.6875 -18.28125 C 3.289062 -19.1875 4.128906 -19.878906 5.203125 -20.359375 C 6.285156 -20.835938 7.535156 -21.078125 8.953125 -21.078125 C 10.960938 -21.078125 12.613281 -20.570312 13.90625 -19.5625 C 15.195312 -18.550781 15.910156 -17.171875 16.046875 -15.421875 L 12.28125 -15.421875 C 12.21875 -16.179688 11.851562 -16.828125 11.1875 -17.359375 C 10.53125 -17.898438 9.664062 -18.171875 8.59375 -18.171875 C 7.613281 -18.171875 6.8125 -17.921875 6.1875 -17.421875 C 5.570312 -16.921875 5.265625 -16.203125 5.265625 -15.265625 C 5.265625 -14.628906 5.457031 -14.101562 5.84375 -13.6875 C 6.238281 -13.28125 6.734375 -12.957031 7.328125 -12.71875 C 7.929688 -12.476562 8.753906 -12.21875 9.796875 -11.9375 C 11.171875 -11.5625 12.289062 -11.179688 13.15625 -10.796875 C 14.019531 -10.421875 14.753906 -9.835938 15.359375 -9.046875 C 15.972656 -8.265625 16.28125 -7.210938 16.28125 -5.890625 C 16.28125 -4.835938 15.992188 -3.84375 15.421875 -2.90625 C 14.859375 -1.96875 14.03125 -1.210938 12.9375 -0.640625 C 11.851562 -0.078125 10.570312 0.203125 9.09375 0.203125 Z M 9.09375 0.203125 "/></g></g></g><g fill="#efe9ce" fill-opacity="1"><g transform="translate(119.53099, 47.054443)"><g/></g></g><g fill="#efe9ce" fill-opacity="1"><g transform="translate(129.080449, 47.054443)"><g><path d="M 5.65625 -18.046875 L 5.65625 -11.9375 L 12.84375 -11.9375 L 12.84375 -9.15625 L 5.65625 -9.15625 L 5.65625 -2.78125 L 13.734375 -2.78125 L 13.734375 0 L 2.25 0 L 2.25 -20.84375 L 13.734375 -20.84375 L 13.734375 -18.046875 Z M 5.65625 -18.046875 "/></g></g></g><g fill="#efe9ce" fill-opacity="1"><g transform="translate(146.532899, 47.054443)"><g><path d="M 13.375 -10.6875 C 14.5 -10.488281 15.445312 -9.898438 16.21875 -8.921875 C 17 -7.941406 17.390625 -6.832031 17.390625 -5.59375 C 17.390625 -4.539062 17.113281 -3.585938 16.5625 -2.734375 C 16.019531 -1.890625 15.226562 -1.222656 14.1875 -0.734375 C 13.15625 -0.242188 11.945312 0 10.5625 0 L 2.25 0 L 2.25 -20.8125 L 10.171875 -20.8125 C 11.585938 -20.8125 12.804688 -20.570312 13.828125 -20.09375 C 14.847656 -19.613281 15.617188 -18.96875 16.140625 -18.15625 C 16.660156 -17.34375 16.921875 -16.441406 16.921875 -15.453125 C 16.921875 -14.253906 16.597656 -13.253906 15.953125 -12.453125 C 15.316406 -11.648438 14.457031 -11.0625 13.375 -10.6875 Z M 5.65625 -12.0625 L 9.875 -12.0625 C 11 -12.0625 11.875 -12.316406 12.5 -12.828125 C 13.125 -13.335938 13.4375 -14.070312 13.4375 -15.03125 C 13.4375 -15.96875 13.125 -16.695312 12.5 -17.21875 C 11.875 -17.75 11 -18.015625 9.875 -18.015625 L 5.65625 -18.015625 Z M 10.265625 -2.78125 C 11.421875 -2.78125 12.328125 -3.054688 12.984375 -3.609375 C 13.648438 -4.171875 13.984375 -4.953125 13.984375 -5.953125 C 13.984375 -6.972656 13.632812 -7.78125 12.9375 -8.375 C 12.238281 -8.976562 11.3125 -9.28125 10.15625 -9.28125 L 5.65625 -9.28125 L 5.65625 -2.78125 Z M 10.265625 -2.78125 "/></g></g></g><g fill="#efe9ce" fill-opacity="1"><g transform="translate(167.158529, 47.054443)"><g><path d="M 5.65625 -18.046875 L 5.65625 -11.9375 L 12.84375 -11.9375 L 12.84375 -9.15625 L 5.65625 -9.15625 L 5.65625 -2.78125 L 13.734375 -2.78125 L 13.734375 0 L 2.25 0 L 2.25 -20.84375 L 13.734375 -20.84375 L 13.734375 -18.046875 Z M 5.65625 -18.046875 "/></g></g></g><g fill="#efe9ce" fill-opacity="1"><g transform="translate(184.610978, 47.054443)"><g><path d="M 13.046875 0 L 8.265625 -8.328125 L 5.65625 -8.328125 L 5.65625 0 L 2.25 0 L 2.25 -20.8125 L 9.4375 -20.8125 C 11.03125 -20.8125 12.378906 -20.53125 13.484375 -19.96875 C 14.585938 -19.40625 15.414062 -18.65625 15.96875 -17.71875 C 16.519531 -16.78125 16.796875 -15.734375 16.796875 -14.578125 C 16.796875 -13.222656 16.398438 -11.988281 15.609375 -10.875 C 14.828125 -9.769531 13.613281 -9.019531 11.96875 -8.625 L 17.125 0 Z M 5.65625 -11.046875 L 9.4375 -11.046875 C 10.707031 -11.046875 11.664062 -11.363281 12.3125 -12 C 12.96875 -12.644531 13.296875 -13.503906 13.296875 -14.578125 C 13.296875 -15.660156 12.972656 -16.503906 12.328125 -17.109375 C 11.691406 -17.710938 10.726562 -18.015625 9.4375 -18.015625 L 5.65625 -18.015625 Z M 5.65625 -11.046875 "/></g></g></g><g fill="#efe9ce" fill-opacity="1"><g transform="translate(205.296492, 47.054443)"><g><path d="M 15.6875 -20.8125 L 15.6875 -18.015625 L 10.15625 -18.015625 L 10.15625 0 L 6.734375 0 L 6.734375 -18.015625 L 1.171875 -18.015625 L 1.171875 -20.8125 Z M 15.6875 -20.8125 "/></g></g></g></svg>