<svg xmlns="http://www.w3.org/2000/svg" xmlns:xlink="http://www.w3.org/1999/xlink" width="500" zoomAndPan="magnify" viewBox="0 0 375 74.999997" height="100" preserveAspectRatio="xMidYMid meet" version="1.0"><defs><g/></defs><rect x="-37.5" width="450" fill="#ffffff" y="-7.5" height="89.999996" fill-opacity="1"/><rect x="-37.5" width="450" fill="#293731" y="-7.5" height="89.999996" fill-opacity="1"/><g fill="#ffffff" fill-opacity="1"><g transform="translate(76.823721, 50.843689)"><g><path d="M 3.78125 -24.40625 C 3.519531 -24.40625 3.296875 -24.492188 3.109375 -24.671875 C 2.929688 -24.859375 2.84375 -25.09375 2.84375 -25.375 C 2.84375 -25.664062 2.929688 -25.898438 3.109375 -26.078125 C 3.296875 -26.265625 3.519531 -26.359375 3.78125 -26.359375 C 4.039062 -26.359375 4.257812 -26.265625 4.4375 -26.078125 C 4.625 -25.898438 4.71875 -25.664062 4.71875 -25.375 C 4.71875 -25.09375 4.625 -24.859375 4.4375 -24.671875 C 4.257812 -24.492188 4.039062 -24.40625 3.78125 -24.40625 Z M 4.140625 5.46875 C 4.140625 6.644531 3.847656 7.550781 3.265625 8.1875 C 2.691406 8.820312 1.734375 9.140625 0.390625 9.140625 L -0.90625 9.140625 L -0.90625 8.421875 L 0.390625 8.421875 C 1.453125 8.421875 2.222656 8.1875 2.703125 7.71875 C 3.179688 7.25 3.421875 6.425781 3.421875 5.25 L 3.421875 -19.4375 L 4.140625 -19.4375 Z M 4.140625 5.46875 "/></g></g></g><g fill="#ffffff" fill-opacity="1"><g transform="translate(86.147736, 50.843689)"><g><path d="M 11.65625 0.25 C 9.863281 0.25 8.242188 -0.148438 6.796875 -0.953125 C 5.359375 -1.753906 4.222656 -2.90625 3.390625 -4.40625 C 2.566406 -5.90625 2.15625 -7.675781 2.15625 -9.71875 C 2.15625 -11.757812 2.566406 -13.53125 3.390625 -15.03125 C 4.222656 -16.53125 5.359375 -17.679688 6.796875 -18.484375 C 8.242188 -19.285156 9.863281 -19.6875 11.65625 -19.6875 C 13.457031 -19.6875 15.078125 -19.285156 16.515625 -18.484375 C 17.960938 -17.679688 19.09375 -16.53125 19.90625 -15.03125 C 20.71875 -13.53125 21.125 -11.757812 21.125 -9.71875 C 21.125 -7.675781 20.71875 -5.90625 19.90625 -4.40625 C 19.09375 -2.90625 17.960938 -1.753906 16.515625 -0.953125 C 15.078125 -0.148438 13.457031 0.25 11.65625 0.25 Z M 11.65625 -0.390625 C 13.21875 -0.390625 14.660156 -0.734375 15.984375 -1.421875 C 17.304688 -2.109375 18.375 -3.144531 19.1875 -4.53125 C 20 -5.925781 20.40625 -7.65625 20.40625 -9.71875 C 20.40625 -11.78125 20 -13.503906 19.1875 -14.890625 C 18.375 -16.285156 17.304688 -17.328125 15.984375 -18.015625 C 14.660156 -18.703125 13.21875 -19.046875 11.65625 -19.046875 C 10.101562 -19.046875 8.660156 -18.703125 7.328125 -18.015625 C 5.992188 -17.328125 4.914062 -16.28125 4.09375 -14.875 C 3.28125 -13.476562 2.875 -11.757812 2.875 -9.71875 C 2.875 -7.675781 3.28125 -5.953125 4.09375 -4.546875 C 4.914062 -3.148438 5.992188 -2.109375 7.328125 -1.421875 C 8.660156 -0.734375 10.101562 -0.390625 11.65625 -0.390625 Z M 11.65625 -0.390625 "/></g></g></g><g fill="#ffffff" fill-opacity="1"><g transform="translate(111.56378, 50.843689)"><g><path d="M 11.40625 -19.875 C 13.6875 -19.875 15.554688 -19.164062 17.015625 -17.75 C 18.484375 -16.332031 19.21875 -14.195312 19.21875 -11.34375 L 19.21875 0 L 18.546875 0 L 18.546875 -11.40625 C 18.546875 -13.957031 17.90625 -15.894531 16.625 -17.21875 C 15.351562 -18.550781 13.613281 -19.21875 11.40625 -19.21875 C 9.101562 -19.21875 7.253906 -18.46875 5.859375 -16.96875 C 4.472656 -15.46875 3.78125 -13.253906 3.78125 -10.328125 L 3.78125 0 L 3.0625 0 L 3.0625 -19.4375 L 3.78125 -19.4375 L 3.78125 -14.328125 C 4.238281 -16.128906 5.148438 -17.503906 6.515625 -18.453125 C 7.878906 -19.398438 9.507812 -19.875 11.40625 -19.875 Z M 11.40625 -19.875 "/></g></g></g><g fill="#ffffff" fill-opacity="1"><g transform="translate(135.791825, 50.843689)"><g><path d="M 2.15625 -9.71875 C 2.15625 -11.757812 2.550781 -13.53125 3.34375 -15.03125 C 4.132812 -16.53125 5.25 -17.679688 6.6875 -18.484375 C 8.132812 -19.285156 9.78125 -19.6875 11.625 -19.6875 C 13.851562 -19.6875 15.742188 -19.101562 17.296875 -17.9375 C 18.847656 -16.78125 19.882812 -15.300781 20.40625 -13.5 L 20.40625 -19.4375 L 21.09375 -19.4375 L 21.09375 0 L 20.40625 0 L 20.40625 -5.9375 C 19.882812 -4.132812 18.847656 -2.648438 17.296875 -1.484375 C 15.742188 -0.328125 13.851562 0.25 11.625 0.25 C 9.78125 0.25 8.132812 -0.148438 6.6875 -0.953125 C 5.25 -1.753906 4.132812 -2.90625 3.34375 -4.40625 C 2.550781 -5.90625 2.15625 -7.675781 2.15625 -9.71875 Z M 20.40625 -9.71875 C 20.40625 -11.5625 20.023438 -13.1875 19.265625 -14.59375 C 18.515625 -16 17.472656 -17.09375 16.140625 -17.875 C 14.804688 -18.65625 13.300781 -19.046875 11.625 -19.046875 C 9.851562 -19.046875 8.3125 -18.671875 7 -17.921875 C 5.695312 -17.179688 4.679688 -16.109375 3.953125 -14.703125 C 3.234375 -13.296875 2.875 -11.632812 2.875 -9.71875 C 2.875 -7.800781 3.234375 -6.140625 3.953125 -4.734375 C 4.679688 -3.328125 5.695312 -2.25 7 -1.5 C 8.3125 -0.757812 9.851562 -0.390625 11.625 -0.390625 C 13.300781 -0.390625 14.804688 -0.78125 16.140625 -1.5625 C 17.472656 -2.34375 18.515625 -3.4375 19.265625 -4.84375 C 20.023438 -6.25 20.40625 -7.875 20.40625 -9.71875 Z M 20.40625 -9.71875 "/></g></g></g><g fill="#ffffff" fill-opacity="1"><g transform="translate(162.071875, 50.843689)"><g><path d="M 9.328125 0.25 C 7.191406 0.25 5.46875 -0.179688 4.15625 -1.046875 C 2.851562 -1.910156 2.09375 -3.21875 1.875 -4.96875 L 2.59375 -4.96875 C 2.738281 -3.53125 3.378906 -2.40625 4.515625 -1.59375 C 5.660156 -0.789062 7.273438 -0.390625 9.359375 -0.390625 C 10.410156 -0.390625 11.335938 -0.59375 12.140625 -1 C 12.953125 -1.414062 13.570312 -1.960938 14 -2.640625 C 14.4375 -3.328125 14.65625 -4.066406 14.65625 -4.859375 C 14.65625 -5.722656 14.40625 -6.425781 13.90625 -6.96875 C 13.414062 -7.507812 12.804688 -7.921875 12.078125 -8.203125 C 11.347656 -8.492188 10.347656 -8.804688 9.078125 -9.140625 C 7.660156 -9.503906 6.507812 -9.863281 5.625 -10.21875 C 4.75 -10.582031 4.003906 -11.132812 3.390625 -11.875 C 2.785156 -12.625 2.484375 -13.609375 2.484375 -14.828125 C 2.484375 -15.691406 2.742188 -16.492188 3.265625 -17.234375 C 3.796875 -17.984375 4.523438 -18.578125 5.453125 -19.015625 C 6.378906 -19.460938 7.414062 -19.6875 8.5625 -19.6875 C 10.53125 -19.6875 12.113281 -19.191406 13.3125 -18.203125 C 14.519531 -17.222656 15.171875 -15.859375 15.265625 -14.109375 L 14.546875 -14.109375 C 14.472656 -15.546875 13.925781 -16.726562 12.90625 -17.65625 C 11.882812 -18.582031 10.4375 -19.046875 8.5625 -19.046875 C 7.5625 -19.046875 6.648438 -18.851562 5.828125 -18.46875 C 5.015625 -18.082031 4.375 -17.566406 3.90625 -16.921875 C 3.4375 -16.273438 3.203125 -15.578125 3.203125 -14.828125 C 3.203125 -13.773438 3.476562 -12.921875 4.03125 -12.265625 C 4.582031 -11.617188 5.257812 -11.140625 6.0625 -10.828125 C 6.863281 -10.523438 7.9375 -10.191406 9.28125 -9.828125 C 10.65625 -9.441406 11.734375 -9.09375 12.515625 -8.78125 C 13.296875 -8.46875 13.960938 -7.992188 14.515625 -7.359375 C 15.066406 -6.722656 15.34375 -5.890625 15.34375 -4.859375 C 15.34375 -3.898438 15.078125 -3.03125 14.546875 -2.25 C 14.015625 -1.46875 13.289062 -0.851562 12.375 -0.40625 C 11.46875 0.03125 10.453125 0.25 9.328125 0.25 Z M 9.328125 0.25 "/></g></g></g><g fill="#ffffff" fill-opacity="1"><g transform="translate(181.583912, 50.843689)"><g/></g></g><g fill="#efe9ce" fill-opacity="1"><g transform="translate(194.15184, 50.843689)"><g><path d="M 20.765625 -10.625 C 20.765625 -10 20.726562 -9.335938 20.65625 -8.640625 L 4.890625 -8.640625 C 5.015625 -6.691406 5.679688 -5.171875 6.890625 -4.078125 C 8.109375 -2.992188 9.578125 -2.453125 11.296875 -2.453125 C 12.710938 -2.453125 13.894531 -2.78125 14.84375 -3.4375 C 15.789062 -4.09375 16.457031 -4.972656 16.84375 -6.078125 L 20.375 -6.078125 C 19.84375 -4.179688 18.785156 -2.640625 17.203125 -1.453125 C 15.617188 -0.265625 13.648438 0.328125 11.296875 0.328125 C 9.429688 0.328125 7.757812 -0.09375 6.28125 -0.9375 C 4.800781 -1.78125 3.640625 -2.972656 2.796875 -4.515625 C 1.960938 -6.066406 1.546875 -7.863281 1.546875 -9.90625 C 1.546875 -11.9375 1.953125 -13.71875 2.765625 -15.25 C 3.585938 -16.789062 4.734375 -17.972656 6.203125 -18.796875 C 7.679688 -19.628906 9.378906 -20.046875 11.296875 -20.046875 C 13.171875 -20.046875 14.828125 -19.640625 16.265625 -18.828125 C 17.710938 -18.015625 18.820312 -16.890625 19.59375 -15.453125 C 20.375 -14.023438 20.765625 -12.414062 20.765625 -10.625 Z M 17.390625 -11.296875 C 17.390625 -12.546875 17.113281 -13.617188 16.5625 -14.515625 C 16.007812 -15.421875 15.257812 -16.109375 14.3125 -16.578125 C 13.363281 -17.046875 12.3125 -17.28125 11.15625 -17.28125 C 9.5 -17.28125 8.085938 -16.75 6.921875 -15.6875 C 5.765625 -14.632812 5.101562 -13.171875 4.9375 -11.296875 Z M 17.390625 -11.296875 "/></g></g></g><g fill="#efe9ce" fill-opacity="1"><g transform="translate(218.59588, 50.843689)"><g><path d="M 6.046875 -16.0625 C 6.722656 -17.226562 7.707031 -18.179688 9 -18.921875 C 10.289062 -19.671875 11.765625 -20.046875 13.421875 -20.046875 C 15.203125 -20.046875 16.800781 -19.625 18.21875 -18.78125 C 19.632812 -17.945312 20.75 -16.765625 21.5625 -15.234375 C 22.375 -13.710938 22.78125 -11.945312 22.78125 -9.9375 C 22.78125 -7.945312 22.375 -6.171875 21.5625 -4.609375 C 20.75 -3.046875 19.628906 -1.832031 18.203125 -0.96875 C 16.773438 -0.101562 15.179688 0.328125 13.421875 0.328125 C 11.722656 0.328125 10.226562 -0.0390625 8.9375 -0.78125 C 7.65625 -1.53125 6.691406 -2.484375 6.046875 -3.640625 L 6.046875 0 L 2.765625 0 L 2.765625 -26.640625 L 6.046875 -26.640625 Z M 19.4375 -9.9375 C 19.4375 -11.425781 19.132812 -12.722656 18.53125 -13.828125 C 17.9375 -14.929688 17.128906 -15.769531 16.109375 -16.34375 C 15.085938 -16.914062 13.96875 -17.203125 12.75 -17.203125 C 11.539062 -17.203125 10.425781 -16.90625 9.40625 -16.3125 C 8.394531 -15.726562 7.582031 -14.878906 6.96875 -13.765625 C 6.351562 -12.648438 6.046875 -11.363281 6.046875 -9.90625 C 6.046875 -8.414062 6.351562 -7.109375 6.96875 -5.984375 C 7.582031 -4.867188 8.394531 -4.019531 9.40625 -3.4375 C 10.425781 -2.851562 11.539062 -2.5625 12.75 -2.5625 C 13.96875 -2.5625 15.085938 -2.851562 16.109375 -3.4375 C 17.128906 -4.019531 17.9375 -4.867188 18.53125 -5.984375 C 19.132812 -7.109375 19.4375 -8.425781 19.4375 -9.9375 Z M 19.4375 -9.9375 "/></g></g></g><g fill="#efe9ce" fill-opacity="1"><g transform="translate(245.055923, 50.843689)"><g><path d="M 20.765625 -10.625 C 20.765625 -10 20.726562 -9.335938 20.65625 -8.640625 L 4.890625 -8.640625 C 5.015625 -6.691406 5.679688 -5.171875 6.890625 -4.078125 C 8.109375 -2.992188 9.578125 -2.453125 11.296875 -2.453125 C 12.710938 -2.453125 13.894531 -2.78125 14.84375 -3.4375 C 15.789062 -4.09375 16.457031 -4.972656 16.84375 -6.078125 L 20.375 -6.078125 C 19.84375 -4.179688 18.785156 -2.640625 17.203125 -1.453125 C 15.617188 -0.265625 13.648438 0.328125 11.296875 0.328125 C 9.429688 0.328125 7.757812 -0.09375 6.28125 -0.9375 C 4.800781 -1.78125 3.640625 -2.972656 2.796875 -4.515625 C 1.960938 -6.066406 1.546875 -7.863281 1.546875 -9.90625 C 1.546875 -11.9375 1.953125 -13.71875 2.765625 -15.25 C 3.585938 -16.789062 4.734375 -17.972656 6.203125 -18.796875 C 7.679688 -19.628906 9.378906 -20.046875 11.296875 -20.046875 C 13.171875 -20.046875 14.828125 -19.640625 16.265625 -18.828125 C 17.710938 -18.015625 18.820312 -16.890625 19.59375 -15.453125 C 20.375 -14.023438 20.765625 -12.414062 20.765625 -10.625 Z M 17.390625 -11.296875 C 17.390625 -12.546875 17.113281 -13.617188 16.5625 -14.515625 C 16.007812 -15.421875 15.257812 -16.109375 14.3125 -16.578125 C 13.363281 -17.046875 12.3125 -17.28125 11.15625 -17.28125 C 9.5 -17.28125 8.085938 -16.75 6.921875 -15.6875 C 5.765625 -14.632812 5.101562 -13.171875 4.9375 -11.296875 Z M 17.390625 -11.296875 "/></g></g></g><g fill="#efe9ce" fill-opacity="1"><g transform="translate(269.499963, 50.843689)"><g><path d="M 6.046875 -16.53125 C 6.617188 -17.65625 7.4375 -18.53125 8.5 -19.15625 C 9.570312 -19.78125 10.878906 -20.09375 12.421875 -20.09375 L 12.421875 -16.703125 L 11.5625 -16.703125 C 7.882812 -16.703125 6.046875 -14.710938 6.046875 -10.734375 L 6.046875 0 L 2.765625 0 L 2.765625 -19.734375 L 6.046875 -19.734375 Z M 6.046875 -16.53125 "/></g></g></g><g fill="#efe9ce" fill-opacity="1"><g transform="translate(285.05199, 50.843689)"><g><path d="M 6.765625 -17.03125 L 6.765625 -5.40625 C 6.765625 -4.4375 6.96875 -3.753906 7.375 -3.359375 C 7.78125 -2.960938 8.488281 -2.765625 9.5 -2.765625 L 11.921875 -2.765625 L 11.921875 0 L 8.96875 0 C 7.144531 0 5.773438 -0.414062 4.859375 -1.25 C 3.941406 -2.09375 3.484375 -3.476562 3.484375 -5.40625 L 3.484375 -17.03125 L 0.9375 -17.03125 L 0.9375 -19.734375 L 3.484375 -19.734375 L 3.484375 -24.703125 L 6.765625 -24.703125 L 6.765625 -19.734375 L 11.921875 -19.734375 L 11.921875 -17.03125 Z M 6.765625 -17.03125 "/></g></g></g></svg>