<svg xmlns="http://www.w3.org/2000/svg" xmlns:xlink="http://www.w3.org/1999/xlink" width="250" zoomAndPan="magnify" viewBox="0 0 187.5 74.999997" height="100" preserveAspectRatio="xMidYMid meet" version="1.0"><defs><g/><clipPath id="1abb25a71d"><path d="M 0 0.101562 L 187 0.101562 L 187 74.898438 L 0 74.898438 Z M 0 0.101562 " clip-rule="nonzero"/></clipPath></defs><g clip-path="url(#1abb25a71d)"><path fill="#ffffff" d="M 0 0.101562 L 187 0.101562 L 187 74.898438 L 0 74.898438 Z M 0 0.101562 " fill-opacity="1" fill-rule="nonzero"/><path fill="#293731" d="M 0 0.101562 L 187 0.101562 L 187 74.898438 L 0 74.898438 Z M 0 0.101562 " fill-opacity="1" fill-rule="nonzero"/></g><g fill="#ffffff" fill-opacity="1"><g transform="translate(24.049426, 31.927024)"><g><path d="M 3.609375 -23.28125 C 3.359375 -23.28125 3.144531 -23.363281 2.96875 -23.53125 C 2.800781 -23.707031 2.71875 -23.9375 2.71875 -24.21875 C 2.71875 -24.488281 2.800781 -24.707031 2.96875 -24.875 C 3.144531 -25.050781 3.359375 -25.140625 3.609375 -25.140625 C 3.859375 -25.140625 4.066406 -25.050781 4.234375 -24.875 C 4.410156 -24.707031 4.5 -24.488281 4.5 -24.21875 C 4.5 -23.9375 4.410156 -23.707031 4.234375 -23.53125 C 4.066406 -23.363281 3.859375 -23.28125 3.609375 -23.28125 Z M 3.953125 5.21875 C 3.953125 6.34375 3.675781 7.207031 3.125 7.8125 C 2.570312 8.414062 1.65625 8.71875 0.375 8.71875 L -0.859375 8.71875 L -0.859375 8.03125 L 0.375 8.03125 C 1.382812 8.03125 2.117188 7.804688 2.578125 7.359375 C 3.035156 6.921875 3.265625 6.140625 3.265625 5.015625 L 3.265625 -18.546875 L 3.953125 -18.546875 Z M 3.953125 5.21875 "/></g></g></g><g fill="#ffffff" fill-opacity="1"><g transform="translate(32.943431, 31.927024)"><g><path d="M 11.125 0.234375 C 9.40625 0.234375 7.859375 -0.144531 6.484375 -0.90625 C 5.117188 -1.675781 4.039062 -2.773438 3.25 -4.203125 C 2.457031 -5.640625 2.0625 -7.328125 2.0625 -9.265625 C 2.0625 -11.210938 2.457031 -12.898438 3.25 -14.328125 C 4.039062 -15.765625 5.117188 -16.863281 6.484375 -17.625 C 7.859375 -18.394531 9.40625 -18.78125 11.125 -18.78125 C 12.84375 -18.78125 14.390625 -18.394531 15.765625 -17.625 C 17.140625 -16.863281 18.210938 -15.765625 18.984375 -14.328125 C 19.765625 -12.898438 20.15625 -11.210938 20.15625 -9.265625 C 20.15625 -7.328125 19.765625 -5.640625 18.984375 -4.203125 C 18.210938 -2.773438 17.140625 -1.675781 15.765625 -0.90625 C 14.390625 -0.144531 12.84375 0.234375 11.125 0.234375 Z M 11.125 -0.375 C 12.613281 -0.375 13.988281 -0.695312 15.25 -1.34375 C 16.507812 -2 17.523438 -2.988281 18.296875 -4.3125 C 19.078125 -5.644531 19.46875 -7.296875 19.46875 -9.265625 C 19.46875 -11.234375 19.078125 -12.878906 18.296875 -14.203125 C 17.523438 -15.535156 16.507812 -16.53125 15.25 -17.1875 C 13.988281 -17.84375 12.613281 -18.171875 11.125 -18.171875 C 9.632812 -18.171875 8.253906 -17.84375 6.984375 -17.1875 C 5.710938 -16.53125 4.6875 -15.53125 3.90625 -14.1875 C 3.132812 -12.851562 2.75 -11.210938 2.75 -9.265625 C 2.75 -7.328125 3.132812 -5.6875 3.90625 -4.34375 C 4.6875 -3 5.710938 -2 6.984375 -1.34375 C 8.253906 -0.695312 9.632812 -0.375 11.125 -0.375 Z M 11.125 -0.375 "/></g></g></g><g fill="#ffffff" fill-opacity="1"><g transform="translate(57.186598, 31.927024)"><g><path d="M 10.890625 -18.953125 C 13.066406 -18.953125 14.851562 -18.273438 16.25 -16.921875 C 17.644531 -15.578125 18.34375 -13.539062 18.34375 -10.8125 L 18.34375 0 L 17.6875 0 L 17.6875 -10.890625 C 17.6875 -13.316406 17.078125 -15.164062 15.859375 -16.4375 C 14.648438 -17.707031 12.992188 -18.34375 10.890625 -18.34375 C 8.691406 -18.34375 6.925781 -17.625 5.59375 -16.1875 C 4.269531 -14.757812 3.609375 -12.648438 3.609375 -9.859375 L 3.609375 0 L 2.921875 0 L 2.921875 -18.546875 L 3.609375 -18.546875 L 3.609375 -13.671875 C 4.046875 -15.390625 4.914062 -16.695312 6.21875 -17.59375 C 7.519531 -18.5 9.078125 -18.953125 10.890625 -18.953125 Z M 10.890625 -18.953125 "/></g></g></g><g fill="#ffffff" fill-opacity="1"><g transform="translate(80.296607, 31.927024)"><g><path d="M 2.0625 -9.265625 C 2.0625 -11.210938 2.4375 -12.898438 3.1875 -14.328125 C 3.945312 -15.765625 5.015625 -16.863281 6.390625 -17.625 C 7.765625 -18.394531 9.332031 -18.78125 11.09375 -18.78125 C 13.21875 -18.78125 15.019531 -18.222656 16.5 -17.109375 C 17.976562 -16.003906 18.96875 -14.59375 19.46875 -12.875 L 19.46875 -18.546875 L 20.125 -18.546875 L 20.125 0 L 19.46875 0 L 19.46875 -5.671875 C 18.96875 -3.953125 17.976562 -2.535156 16.5 -1.421875 C 15.019531 -0.316406 13.21875 0.234375 11.09375 0.234375 C 9.332031 0.234375 7.765625 -0.144531 6.390625 -0.90625 C 5.015625 -1.675781 3.945312 -2.773438 3.1875 -4.203125 C 2.4375 -5.640625 2.0625 -7.328125 2.0625 -9.265625 Z M 19.46875 -9.265625 C 19.46875 -11.035156 19.109375 -12.585938 18.390625 -13.921875 C 17.671875 -15.265625 16.675781 -16.304688 15.40625 -17.046875 C 14.132812 -17.796875 12.695312 -18.171875 11.09375 -18.171875 C 9.394531 -18.171875 7.921875 -17.8125 6.671875 -17.09375 C 5.429688 -16.382812 4.46875 -15.359375 3.78125 -14.015625 C 3.09375 -12.679688 2.75 -11.097656 2.75 -9.265625 C 2.75 -7.441406 3.09375 -5.859375 3.78125 -4.515625 C 4.46875 -3.171875 5.429688 -2.144531 6.671875 -1.4375 C 7.921875 -0.726562 9.394531 -0.375 11.09375 -0.375 C 12.695312 -0.375 14.132812 -0.742188 15.40625 -1.484375 C 16.675781 -2.234375 17.671875 -3.273438 18.390625 -4.609375 C 19.109375 -5.953125 19.46875 -7.503906 19.46875 -9.265625 Z M 19.46875 -9.265625 "/></g></g></g><g fill="#ffffff" fill-opacity="1"><g transform="translate(105.363887, 31.927024)"><g><path d="M 8.890625 0.234375 C 6.859375 0.234375 5.21875 -0.175781 3.96875 -1 C 2.71875 -1.820312 1.988281 -3.066406 1.78125 -4.734375 L 2.46875 -4.734375 C 2.601562 -3.359375 3.210938 -2.285156 4.296875 -1.515625 C 5.390625 -0.753906 6.929688 -0.375 8.921875 -0.375 C 9.929688 -0.375 10.816406 -0.566406 11.578125 -0.953125 C 12.347656 -1.347656 12.941406 -1.867188 13.359375 -2.515625 C 13.773438 -3.171875 13.984375 -3.878906 13.984375 -4.640625 C 13.984375 -5.460938 13.742188 -6.128906 13.265625 -6.640625 C 12.796875 -7.160156 12.210938 -7.554688 11.515625 -7.828125 C 10.816406 -8.109375 9.863281 -8.40625 8.65625 -8.71875 C 7.300781 -9.0625 6.207031 -9.40625 5.375 -9.75 C 4.539062 -10.09375 3.832031 -10.617188 3.25 -11.328125 C 2.664062 -12.035156 2.375 -12.976562 2.375 -14.15625 C 2.375 -14.976562 2.625 -15.742188 3.125 -16.453125 C 3.625 -17.160156 4.316406 -17.722656 5.203125 -18.140625 C 6.085938 -18.566406 7.078125 -18.78125 8.171875 -18.78125 C 10.046875 -18.78125 11.554688 -18.3125 12.703125 -17.375 C 13.847656 -16.4375 14.46875 -15.132812 14.5625 -13.46875 L 13.875 -13.46875 C 13.800781 -14.832031 13.28125 -15.957031 12.3125 -16.84375 C 11.34375 -17.726562 9.960938 -18.171875 8.171875 -18.171875 C 7.210938 -18.171875 6.34375 -17.984375 5.5625 -17.609375 C 4.78125 -17.242188 4.164062 -16.753906 3.71875 -16.140625 C 3.28125 -15.523438 3.0625 -14.863281 3.0625 -14.15625 C 3.0625 -13.144531 3.320312 -12.328125 3.84375 -11.703125 C 4.375 -11.085938 5.019531 -10.628906 5.78125 -10.328125 C 6.550781 -10.035156 7.578125 -9.71875 8.859375 -9.375 C 10.160156 -9.007812 11.179688 -8.675781 11.921875 -8.375 C 12.671875 -8.082031 13.304688 -7.628906 13.828125 -7.015625 C 14.359375 -6.410156 14.625 -5.617188 14.625 -4.640625 C 14.625 -3.722656 14.375 -2.890625 13.875 -2.140625 C 13.375 -1.398438 12.6875 -0.816406 11.8125 -0.390625 C 10.945312 0.0234375 9.972656 0.234375 8.890625 0.234375 Z M 8.890625 0.234375 "/></g></g></g><g fill="#efe9ce" fill-opacity="1"><g transform="translate(27.445324, 65.513126)"><g><path d="M 19.8125 -10.125 C 19.8125 -9.53125 19.78125 -8.90625 19.71875 -8.25 L 4.671875 -8.25 C 4.785156 -6.382812 5.421875 -4.929688 6.578125 -3.890625 C 7.734375 -2.847656 9.132812 -2.328125 10.78125 -2.328125 C 12.132812 -2.328125 13.257812 -2.640625 14.15625 -3.265625 C 15.0625 -3.898438 15.703125 -4.742188 16.078125 -5.796875 L 19.4375 -5.796875 C 18.9375 -3.992188 17.929688 -2.523438 16.421875 -1.390625 C 14.910156 -0.253906 13.03125 0.3125 10.78125 0.3125 C 9 0.3125 7.398438 -0.0859375 5.984375 -0.890625 C 4.578125 -1.691406 3.472656 -2.832031 2.671875 -4.3125 C 1.878906 -5.789062 1.484375 -7.5 1.484375 -9.4375 C 1.484375 -11.382812 1.867188 -13.09375 2.640625 -14.5625 C 3.421875 -16.03125 4.515625 -17.15625 5.921875 -17.9375 C 7.328125 -18.726562 8.945312 -19.125 10.78125 -19.125 C 12.570312 -19.125 14.148438 -18.734375 15.515625 -17.953125 C 16.890625 -17.179688 17.945312 -16.113281 18.6875 -14.75 C 19.4375 -13.382812 19.8125 -11.84375 19.8125 -10.125 Z M 16.59375 -10.78125 C 16.59375 -11.96875 16.328125 -12.988281 15.796875 -13.84375 C 15.273438 -14.707031 14.5625 -15.363281 13.65625 -15.8125 C 12.75 -16.257812 11.742188 -16.484375 10.640625 -16.484375 C 9.066406 -16.484375 7.722656 -15.976562 6.609375 -14.96875 C 5.503906 -13.96875 4.867188 -12.570312 4.703125 -10.78125 Z M 16.59375 -10.78125 "/></g></g></g><g fill="#efe9ce" fill-opacity="1"><g transform="translate(48.734986, 65.513126)"><g><path d="M 5.765625 -15.3125 C 6.410156 -16.4375 7.347656 -17.351562 8.578125 -18.0625 C 9.816406 -18.769531 11.226562 -19.125 12.8125 -19.125 C 14.507812 -19.125 16.03125 -18.722656 17.375 -17.921875 C 18.726562 -17.117188 19.789062 -15.988281 20.5625 -14.53125 C 21.34375 -13.082031 21.734375 -11.398438 21.734375 -9.484375 C 21.734375 -7.578125 21.34375 -5.878906 20.5625 -4.390625 C 19.789062 -2.898438 18.722656 -1.742188 17.359375 -0.921875 C 15.992188 -0.0976562 14.476562 0.3125 12.8125 0.3125 C 11.1875 0.3125 9.757812 -0.0390625 8.53125 -0.75 C 7.3125 -1.457031 6.390625 -2.363281 5.765625 -3.46875 L 5.765625 0 L 2.640625 0 L 2.640625 -25.421875 L 5.765625 -25.421875 Z M 18.546875 -9.484375 C 18.546875 -10.898438 18.257812 -12.132812 17.6875 -13.1875 C 17.113281 -14.238281 16.335938 -15.039062 15.359375 -15.59375 C 14.390625 -16.144531 13.320312 -16.421875 12.15625 -16.421875 C 11.007812 -16.421875 9.945312 -16.140625 8.96875 -15.578125 C 8 -15.015625 7.222656 -14.203125 6.640625 -13.140625 C 6.054688 -12.078125 5.765625 -10.84375 5.765625 -9.4375 C 5.765625 -8.019531 6.054688 -6.78125 6.640625 -5.71875 C 7.222656 -4.65625 8 -3.84375 8.96875 -3.28125 C 9.945312 -2.71875 11.007812 -2.4375 12.15625 -2.4375 C 13.320312 -2.4375 14.390625 -2.71875 15.359375 -3.28125 C 16.335938 -3.84375 17.113281 -4.65625 17.6875 -5.71875 C 18.257812 -6.78125 18.546875 -8.035156 18.546875 -9.484375 Z M 18.546875 -9.484375 "/></g></g></g><g fill="#efe9ce" fill-opacity="1"><g transform="translate(71.947587, 65.513126)"><g><path d="M 19.8125 -10.125 C 19.8125 -9.53125 19.78125 -8.90625 19.71875 -8.25 L 4.671875 -8.25 C 4.785156 -6.382812 5.421875 -4.929688 6.578125 -3.890625 C 7.734375 -2.847656 9.132812 -2.328125 10.78125 -2.328125 C 12.132812 -2.328125 13.257812 -2.640625 14.15625 -3.265625 C 15.0625 -3.898438 15.703125 -4.742188 16.078125 -5.796875 L 19.4375 -5.796875 C 18.9375 -3.992188 17.929688 -2.523438 16.421875 -1.390625 C 14.910156 -0.253906 13.03125 0.3125 10.78125 0.3125 C 9 0.3125 7.398438 -0.0859375 5.984375 -0.890625 C 4.578125 -1.691406 3.472656 -2.832031 2.671875 -4.3125 C 1.878906 -5.789062 1.484375 -7.5 1.484375 -9.4375 C 1.484375 -11.382812 1.867188 -13.09375 2.640625 -14.5625 C 3.421875 -16.03125 4.515625 -17.15625 5.921875 -17.9375 C 7.328125 -18.726562 8.945312 -19.125 10.78125 -19.125 C 12.570312 -19.125 14.148438 -18.734375 15.515625 -17.953125 C 16.890625 -17.179688 17.945312 -16.113281 18.6875 -14.75 C 19.4375 -13.382812 19.8125 -11.84375 19.8125 -10.125 Z M 16.59375 -10.78125 C 16.59375 -11.96875 16.328125 -12.988281 15.796875 -13.84375 C 15.273438 -14.707031 14.5625 -15.363281 13.65625 -15.8125 C 12.75 -16.257812 11.742188 -16.484375 10.640625 -16.484375 C 9.066406 -16.484375 7.722656 -15.976562 6.609375 -14.96875 C 5.503906 -13.96875 4.867188 -12.570312 4.703125 -10.78125 Z M 16.59375 -10.78125 "/></g></g></g><g fill="#efe9ce" fill-opacity="1"><g transform="translate(93.237249, 65.513126)"><g><path d="M 5.765625 -15.765625 C 6.316406 -16.835938 7.101562 -17.671875 8.125 -18.265625 C 9.144531 -18.859375 10.382812 -19.15625 11.84375 -19.15625 L 11.84375 -15.9375 L 11.03125 -15.9375 C 7.519531 -15.9375 5.765625 -14.035156 5.765625 -10.234375 L 5.765625 0 L 2.640625 0 L 2.640625 -18.828125 L 5.765625 -18.828125 Z M 5.765625 -15.765625 "/></g></g></g><g fill="#efe9ce" fill-opacity="1"><g transform="translate(106.045378, 65.513126)"><g><path d="M 6.453125 -16.25 L 6.453125 -5.15625 C 6.453125 -4.238281 6.644531 -3.585938 7.03125 -3.203125 C 7.425781 -2.828125 8.101562 -2.640625 9.0625 -2.640625 L 11.375 -2.640625 L 11.375 0 L 8.546875 0 C 6.804688 0 5.5 -0.398438 4.625 -1.203125 C 3.757812 -2.003906 3.328125 -3.320312 3.328125 -5.15625 L 3.328125 -16.25 L 0.890625 -16.25 L 0.890625 -18.828125 L 3.328125 -18.828125 L 3.328125 -23.5625 L 6.453125 -23.5625 L 6.453125 -18.828125 L 11.375 -18.828125 L 11.375 -16.25 Z M 6.453125 -16.25 "/></g></g></g><path stroke-linecap="round" transform="matrix(0, 0.748005, -0.748005, 0, 131.07374, 15.53174)" fill="none" stroke-linejoin="miter" d="M 0.500678 0.500693 L 68.734237 0.500693 " stroke="#ffffff" stroke-width="1" stroke-opacity="1" stroke-miterlimit="4"/><g fill="#ffffff" fill-opacity="1"><g transform="translate(136.860701, 64.677551)"><g><path d="M 3.6875 -5.28125 C 4.175781 -5.28125 4.617188 -5.164062 5.015625 -4.9375 C 5.421875 -4.71875 5.734375 -4.40625 5.953125 -4 C 6.179688 -3.601562 6.296875 -3.144531 6.296875 -2.625 C 6.296875 -2.09375 6.179688 -1.625 5.953125 -1.21875 C 5.734375 -0.820312 5.425781 -0.507812 5.03125 -0.28125 C 4.632812 -0.0625 4.1875 0.046875 3.6875 0.046875 C 3.257812 0.046875 2.875 -0.0390625 2.53125 -0.21875 C 2.195312 -0.394531 1.914062 -0.648438 1.6875 -0.984375 L 1.6875 1.9375 L 0.984375 1.9375 L 0.984375 -5.25 L 1.671875 -5.25 L 1.671875 -4.203125 C 1.878906 -4.546875 2.15625 -4.8125 2.5 -5 C 2.851562 -5.1875 3.25 -5.28125 3.6875 -5.28125 Z M 3.640625 -0.578125 C 4.003906 -0.578125 4.332031 -0.660156 4.625 -0.828125 C 4.925781 -1.003906 5.160156 -1.25 5.328125 -1.5625 C 5.503906 -1.875 5.59375 -2.226562 5.59375 -2.625 C 5.59375 -3.019531 5.503906 -3.367188 5.328125 -3.671875 C 5.160156 -3.984375 4.925781 -4.226562 4.625 -4.40625 C 4.332031 -4.582031 4.003906 -4.671875 3.640625 -4.671875 C 3.265625 -4.671875 2.925781 -4.582031 2.625 -4.40625 C 2.332031 -4.226562 2.101562 -3.984375 1.9375 -3.671875 C 1.769531 -3.367188 1.6875 -3.019531 1.6875 -2.625 C 1.6875 -2.226562 1.769531 -1.875 1.9375 -1.5625 C 2.101562 -1.25 2.332031 -1.003906 2.625 -0.828125 C 2.925781 -0.660156 3.265625 -0.578125 3.640625 -0.578125 Z M 3.640625 -0.578125 "/></g></g></g><g fill="#ffffff" fill-opacity="1"><g transform="translate(145.096109, 64.677551)"><g><path d="M 3.125 0.046875 C 2.625 0.046875 2.171875 -0.0664062 1.765625 -0.296875 C 1.359375 -0.523438 1.035156 -0.84375 0.796875 -1.25 C 0.566406 -1.65625 0.453125 -2.113281 0.453125 -2.625 C 0.453125 -3.132812 0.566406 -3.59375 0.796875 -4 C 1.035156 -4.40625 1.359375 -4.71875 1.765625 -4.9375 C 2.171875 -5.164062 2.625 -5.28125 3.125 -5.28125 C 3.632812 -5.28125 4.09375 -5.164062 4.5 -4.9375 C 4.90625 -4.71875 5.222656 -4.40625 5.453125 -4 C 5.679688 -3.59375 5.796875 -3.132812 5.796875 -2.625 C 5.796875 -2.113281 5.679688 -1.65625 5.453125 -1.25 C 5.222656 -0.84375 4.90625 -0.523438 4.5 -0.296875 C 4.09375 -0.0664062 3.632812 0.046875 3.125 0.046875 Z M 3.125 -0.578125 C 3.5 -0.578125 3.832031 -0.660156 4.125 -0.828125 C 4.425781 -1.003906 4.660156 -1.25 4.828125 -1.5625 C 4.992188 -1.875 5.078125 -2.226562 5.078125 -2.625 C 5.078125 -3.019531 4.992188 -3.375 4.828125 -3.6875 C 4.660156 -4 4.425781 -4.238281 4.125 -4.40625 C 3.832031 -4.582031 3.5 -4.671875 3.125 -4.671875 C 2.757812 -4.671875 2.425781 -4.582031 2.125 -4.40625 C 1.832031 -4.238281 1.597656 -4 1.421875 -3.6875 C 1.253906 -3.375 1.171875 -3.019531 1.171875 -2.625 C 1.171875 -2.226562 1.253906 -1.875 1.421875 -1.5625 C 1.597656 -1.25 1.832031 -1.003906 2.125 -0.828125 C 2.425781 -0.660156 2.757812 -0.578125 3.125 -0.578125 Z M 3.125 -0.578125 "/></g></g></g><g fill="#ffffff" fill-opacity="1"><g transform="translate(152.823073, 64.677551)"><g><path d="M 0.984375 -7.390625 L 1.6875 -7.390625 L 1.6875 0 L 0.984375 0 Z M 0.984375 -7.390625 "/></g></g></g><g fill="#ffffff" fill-opacity="1"><g transform="translate(156.980963, 64.677551)"><g><path d="M 0.984375 -5.25 L 1.6875 -5.25 L 1.6875 0 L 0.984375 0 Z M 1.359375 -6.390625 C 1.210938 -6.390625 1.085938 -6.4375 0.984375 -6.53125 C 0.878906 -6.632812 0.828125 -6.753906 0.828125 -6.890625 C 0.828125 -7.023438 0.878906 -7.140625 0.984375 -7.234375 C 1.085938 -7.335938 1.210938 -7.390625 1.359375 -7.390625 C 1.503906 -7.390625 1.625 -7.34375 1.71875 -7.25 C 1.820312 -7.15625 1.875 -7.039062 1.875 -6.90625 C 1.875 -6.757812 1.820312 -6.632812 1.71875 -6.53125 C 1.625 -6.4375 1.503906 -6.390625 1.359375 -6.390625 Z M 1.359375 -6.390625 "/></g></g></g><g fill="#ffffff" fill-opacity="1"><g transform="translate(161.138855, 64.677551)"><g><path d="M 3.75 -0.3125 C 3.613281 -0.195312 3.445312 -0.109375 3.25 -0.046875 C 3.050781 0.015625 2.847656 0.046875 2.640625 0.046875 C 2.148438 0.046875 1.769531 -0.0820312 1.5 -0.34375 C 1.238281 -0.613281 1.109375 -0.988281 1.109375 -1.46875 L 1.109375 -4.640625 L 0.171875 -4.640625 L 0.171875 -5.25 L 1.109375 -5.25 L 1.109375 -6.390625 L 1.8125 -6.390625 L 1.8125 -5.25 L 3.40625 -5.25 L 3.40625 -4.640625 L 1.8125 -4.640625 L 1.8125 -1.515625 C 1.8125 -1.203125 1.890625 -0.960938 2.046875 -0.796875 C 2.203125 -0.640625 2.425781 -0.5625 2.71875 -0.5625 C 2.863281 -0.5625 3.003906 -0.582031 3.140625 -0.625 C 3.273438 -0.675781 3.394531 -0.742188 3.5 -0.828125 Z M 3.75 -0.3125 "/></g></g></g><g fill="#ffffff" fill-opacity="1"><g transform="translate(166.662562, 64.677551)"><g><path d="M 0.984375 -5.25 L 1.6875 -5.25 L 1.6875 0 L 0.984375 0 Z M 1.359375 -6.390625 C 1.210938 -6.390625 1.085938 -6.4375 0.984375 -6.53125 C 0.878906 -6.632812 0.828125 -6.753906 0.828125 -6.890625 C 0.828125 -7.023438 0.878906 -7.140625 0.984375 -7.234375 C 1.085938 -7.335938 1.210938 -7.390625 1.359375 -7.390625 C 1.503906 -7.390625 1.625 -7.34375 1.71875 -7.25 C 1.820312 -7.15625 1.875 -7.039062 1.875 -6.90625 C 1.875 -6.757812 1.820312 -6.632812 1.71875 -6.53125 C 1.625 -6.4375 1.503906 -6.390625 1.359375 -6.390625 Z M 1.359375 -6.390625 "/></g></g></g><g fill="#ffffff" fill-opacity="1"><g transform="translate(170.820453, 64.677551)"><g><path d="M 2.9375 -2.625 L 1.6875 -1.5 L 1.6875 0 L 0.984375 0 L 0.984375 -7.390625 L 1.6875 -7.390625 L 1.6875 -2.375 L 4.828125 -5.25 L 5.703125 -5.25 L 3.453125 -3.09375 L 5.90625 0 L 5.046875 0 Z M 2.9375 -2.625 "/></g></g></g></svg>