<svg xmlns="http://www.w3.org/2000/svg" xmlns:xlink="http://www.w3.org/1999/xlink" width="500" zoomAndPan="magnify" viewBox="0 0 375 374.999991" height="500" preserveAspectRatio="xMidYMid meet" version="1.0"><defs><g/></defs><rect x="-37.5" width="450" fill="#ffffff" y="-37.499999" height="449.999989" fill-opacity="1"/><rect x="-37.5" width="450" fill="#005538" y="-37.499999" height="449.999989" fill-opacity="1"/><g fill="#efe9ce" fill-opacity="1"><g transform="translate(41.589113, 182.999988)"><g><path d="M 35.53125 -57.84375 L 35.53125 -15.109375 C 35.53125 -10.347656 34.0625 -6.539062 31.125 -3.6875 C 28.1875 -0.84375 24.3125 0.578125 19.5 0.578125 C 14.632812 0.578125 10.734375 -0.875 7.796875 -3.78125 C 4.867188 -6.6875 3.40625 -10.65625 3.40625 -15.6875 L 10.953125 -15.6875 C 11.003906 -12.863281 11.734375 -10.566406 13.140625 -8.796875 C 14.554688 -7.023438 16.675781 -6.140625 19.5 -6.140625 C 22.320312 -6.140625 24.425781 -6.984375 25.8125 -8.671875 C 27.195312 -10.359375 27.890625 -12.503906 27.890625 -15.109375 L 27.890625 -57.84375 Z M 35.53125 -57.84375 "/></g></g></g><g fill="#efe9ce" fill-opacity="1"><g transform="translate(90.471942, 182.999988)"><g><path d="M 32.625 0.578125 C 27.25 0.578125 22.347656 -0.675781 17.921875 -3.1875 C 13.492188 -5.707031 9.992188 -9.222656 7.421875 -13.734375 C 4.847656 -18.242188 3.5625 -23.320312 3.5625 -28.96875 C 3.5625 -34.613281 4.847656 -39.691406 7.421875 -44.203125 C 9.992188 -48.710938 13.492188 -52.222656 17.921875 -54.734375 C 22.347656 -57.253906 27.25 -58.515625 32.625 -58.515625 C 38.039062 -58.515625 42.960938 -57.253906 47.390625 -54.734375 C 51.816406 -52.222656 55.300781 -48.722656 57.84375 -44.234375 C 60.394531 -39.753906 61.671875 -34.664062 61.671875 -28.96875 C 61.671875 -23.269531 60.394531 -18.175781 57.84375 -13.6875 C 55.300781 -9.207031 51.816406 -5.707031 47.390625 -3.1875 C 42.960938 -0.675781 38.039062 0.578125 32.625 0.578125 Z M 32.625 -5.96875 C 36.65625 -5.96875 40.289062 -6.910156 43.53125 -8.796875 C 46.769531 -10.679688 49.316406 -13.363281 51.171875 -16.84375 C 53.023438 -20.332031 53.953125 -24.375 53.953125 -28.96875 C 53.953125 -33.613281 53.023438 -37.664062 51.171875 -41.125 C 49.316406 -44.582031 46.785156 -47.25 43.578125 -49.125 C 40.367188 -51.007812 36.71875 -51.953125 32.625 -51.953125 C 28.53125 -51.953125 24.875 -51.007812 21.65625 -49.125 C 18.445312 -47.25 15.914062 -44.582031 14.0625 -41.125 C 12.207031 -37.664062 11.28125 -33.613281 11.28125 -28.96875 C 11.28125 -24.375 12.207031 -20.332031 14.0625 -16.84375 C 15.914062 -13.363281 18.460938 -10.679688 21.703125 -8.796875 C 24.941406 -6.910156 28.582031 -5.96875 32.625 -5.96875 Z M 32.625 -5.96875 "/></g></g></g><g fill="#efe9ce" fill-opacity="1"><g transform="translate(160.600771, 182.999988)"><g><path d="M 51.875 0 L 44.328125 0 L 13.9375 -46.0625 L 13.9375 0 L 6.390625 0 L 6.390625 -57.9375 L 13.9375 -57.9375 L 44.328125 -11.953125 L 44.328125 -57.9375 L 51.875 -57.9375 Z M 51.875 0 "/></g></g></g><g fill="#efe9ce" fill-opacity="1"><g transform="translate(223.841253, 182.999988)"><g><path d="M 40.59375 -12.859375 L 15.359375 -12.859375 L 10.703125 0 L 2.734375 0 L 23.65625 -57.515625 L 32.375 -57.515625 L 53.203125 0 L 45.234375 0 Z M 38.421875 -19 L 27.96875 -48.21875 L 17.515625 -19 Z M 38.421875 -19 "/></g></g></g><g fill="#efe9ce" fill-opacity="1"><g transform="translate(284.674974, 182.999988)"><g><path d="M 24.734375 0.578125 C 20.910156 0.578125 17.488281 -0.0976562 14.46875 -1.453125 C 11.457031 -2.804688 9.09375 -4.6875 7.375 -7.09375 C 5.664062 -9.5 4.785156 -12.28125 4.734375 -15.4375 L 12.78125 -15.4375 C 13.0625 -12.726562 14.179688 -10.445312 16.140625 -8.59375 C 18.109375 -6.738281 20.972656 -5.8125 24.734375 -5.8125 C 28.328125 -5.8125 31.160156 -6.707031 33.234375 -8.5 C 35.316406 -10.300781 36.359375 -12.613281 36.359375 -15.4375 C 36.359375 -17.65625 35.75 -19.453125 34.53125 -20.828125 C 33.3125 -22.210938 31.785156 -23.265625 29.953125 -23.984375 C 28.128906 -24.703125 25.671875 -25.476562 22.578125 -26.3125 C 18.753906 -27.3125 15.691406 -28.304688 13.390625 -29.296875 C 11.097656 -30.296875 9.132812 -31.859375 7.5 -33.984375 C 5.875 -36.117188 5.0625 -38.984375 5.0625 -42.578125 C 5.0625 -45.734375 5.863281 -48.523438 7.46875 -50.953125 C 9.070312 -53.390625 11.328125 -55.269531 14.234375 -56.59375 C 17.140625 -57.925781 20.472656 -58.59375 24.234375 -58.59375 C 29.660156 -58.59375 34.101562 -57.238281 37.5625 -54.53125 C 41.019531 -51.820312 42.96875 -48.222656 43.40625 -43.734375 L 35.109375 -43.734375 C 34.828125 -45.953125 33.660156 -47.90625 31.609375 -49.59375 C 29.566406 -51.28125 26.859375 -52.125 23.484375 -52.125 C 20.335938 -52.125 17.765625 -51.304688 15.765625 -49.671875 C 13.773438 -48.046875 12.78125 -45.765625 12.78125 -42.828125 C 12.78125 -40.722656 13.375 -39.003906 14.5625 -37.671875 C 15.75 -36.347656 17.210938 -35.335938 18.953125 -34.640625 C 20.703125 -33.953125 23.15625 -33.164062 26.3125 -32.28125 C 30.125 -31.226562 33.191406 -30.191406 35.515625 -29.171875 C 37.847656 -28.148438 39.84375 -26.570312 41.5 -24.4375 C 43.15625 -22.3125 43.984375 -19.421875 43.984375 -15.765625 C 43.984375 -12.941406 43.238281 -10.285156 41.75 -7.796875 C 40.257812 -5.304688 38.046875 -3.285156 35.109375 -1.734375 C 32.171875 -0.191406 28.710938 0.578125 24.734375 0.578125 Z M 24.734375 0.578125 "/></g></g></g><g fill="#efe9ce" fill-opacity="1"><g transform="translate(62.014893, 248.999984)"><g><path d="M 13.9375 -51.703125 L 13.9375 -32.375 L 35.03125 -32.375 L 35.03125 -26.140625 L 13.9375 -26.140625 L 13.9375 -6.21875 L 37.515625 -6.21875 L 37.515625 0 L 6.390625 0 L 6.390625 -57.9375 L 37.515625 -57.9375 L 37.515625 -51.703125 Z M 13.9375 -51.703125 "/></g></g></g><g fill="#efe9ce" fill-opacity="1"><g transform="translate(109.486857, 248.999984)"><g><path d="M 35.359375 -29.796875 C 37.460938 -29.460938 39.382812 -28.601562 41.125 -27.21875 C 42.863281 -25.84375 44.242188 -24.128906 45.265625 -22.078125 C 46.296875 -20.023438 46.8125 -17.835938 46.8125 -15.515625 C 46.8125 -12.585938 46.0625 -9.945312 44.5625 -7.59375 C 43.070312 -5.238281 40.898438 -3.382812 38.046875 -2.03125 C 35.203125 -0.675781 31.84375 0 27.96875 0 L 6.390625 0 L 6.390625 -57.84375 L 27.140625 -57.84375 C 31.066406 -57.84375 34.410156 -57.191406 37.171875 -55.890625 C 39.941406 -54.597656 42.019531 -52.84375 43.40625 -50.625 C 44.789062 -48.414062 45.484375 -45.925781 45.484375 -43.15625 C 45.484375 -39.726562 44.554688 -36.894531 42.703125 -34.65625 C 40.847656 -32.414062 38.398438 -30.796875 35.359375 -29.796875 Z M 13.9375 -32.875 L 26.640625 -32.875 C 30.179688 -32.875 32.921875 -33.703125 34.859375 -35.359375 C 36.796875 -37.015625 37.765625 -39.3125 37.765625 -42.25 C 37.765625 -45.175781 36.796875 -47.46875 34.859375 -49.125 C 32.921875 -50.789062 30.128906 -51.625 26.484375 -51.625 L 13.9375 -51.625 Z M 27.3125 -6.21875 C 31.070312 -6.21875 34.003906 -7.101562 36.109375 -8.875 C 38.210938 -10.644531 39.265625 -13.109375 39.265625 -16.265625 C 39.265625 -19.472656 38.15625 -22.003906 35.9375 -23.859375 C 33.726562 -25.710938 30.769531 -26.640625 27.0625 -26.640625 L 13.9375 -26.640625 L 13.9375 -6.21875 Z M 27.3125 -6.21875 "/></g></g></g><g fill="#efe9ce" fill-opacity="1"><g transform="translate(165.258044, 248.999984)"><g><path d="M 13.9375 -51.703125 L 13.9375 -32.375 L 35.03125 -32.375 L 35.03125 -26.140625 L 13.9375 -26.140625 L 13.9375 -6.21875 L 37.515625 -6.21875 L 37.515625 0 L 6.390625 0 L 6.390625 -57.9375 L 37.515625 -57.9375 L 37.515625 -51.703125 Z M 13.9375 -51.703125 "/></g></g></g><g fill="#efe9ce" fill-opacity="1"><g transform="translate(212.73001, 248.999984)"><g><path d="M 36.859375 0 L 23.078125 -23.65625 L 13.9375 -23.65625 L 13.9375 0 L 6.390625 0 L 6.390625 -57.84375 L 25.0625 -57.84375 C 29.4375 -57.84375 33.128906 -57.097656 36.140625 -55.609375 C 39.160156 -54.117188 41.414062 -52.097656 42.90625 -49.546875 C 44.40625 -47.003906 45.15625 -44.101562 45.15625 -40.84375 C 45.15625 -36.851562 44.003906 -33.335938 41.703125 -30.296875 C 39.410156 -27.253906 35.96875 -25.234375 31.375 -24.234375 L 45.90625 0 Z M 13.9375 -29.71875 L 25.0625 -29.71875 C 29.15625 -29.71875 32.222656 -30.722656 34.265625 -32.734375 C 36.316406 -34.753906 37.34375 -37.457031 37.34375 -40.84375 C 37.34375 -44.269531 36.332031 -46.921875 34.3125 -48.796875 C 32.300781 -50.679688 29.21875 -51.625 25.0625 -51.625 L 13.9375 -51.625 Z M 13.9375 -29.71875 "/></g></g></g><g fill="#efe9ce" fill-opacity="1"><g transform="translate(268.086235, 248.999984)"><g><path d="M 42 -57.84375 L 42 -51.703125 L 26.234375 -51.703125 L 26.234375 0 L 18.671875 0 L 18.671875 -51.703125 L 2.828125 -51.703125 L 2.828125 -57.84375 Z M 42 -57.84375 "/></g></g></g></svg>